<svg width="19" height="19" viewBox="0 0 19 19" fill="none" xmlns="http://www.w3.org/2000/svg">
<path d="M18.4434 15.0664H17.8496V13.3965C17.8496 13.0891 17.6004 12.8398 17.293 12.8398H11.7266C10.8171 12.8398 10.0082 13.2784 9.5 13.9551C8.99179 13.2784 8.18291 12.8398 7.27344 12.8398H1.70703C1.39962 12.8398 1.15039 13.0891 1.15039 13.3965V15.0664H0.556641C0.249227 15.0664 0 15.3156 0 15.623C0 15.9305 0.249227 16.1797 0.556641 16.1797H5.81819C6.95111 16.1797 7.83835 16.4307 8.45526 16.9258C9.06152 17.4124 9.93199 17.4177 10.5447 16.9258C11.1616 16.4307 12.0489 16.1797 13.1818 16.1797H18.4434C18.7508 16.1797 19 15.9305 19 15.623C19 15.3156 18.7508 15.0664 18.4434 15.0664ZM5.81819 15.0664H2.26367V13.9531H7.27344C8.19423 13.9531 8.94336 14.7023 8.94336 15.623V15.903C8.14577 15.3482 7.09654 15.0664 5.81819 15.0664ZM10.0566 15.903V15.623C10.0566 14.7023 10.8058 13.9531 11.7266 13.9531H16.7363V15.0664H13.1818C11.9035 15.0664 10.8542 15.3482 10.0566 15.903Z" fill="#B50D0D"/>
<path d="M1.55426 5.02548L5.60368 6.18244V8.94338C5.60368 9.15423 5.7228 9.34694 5.91139 9.44127L8.373 10.6721C8.64579 10.8085 8.89561 10.9842 9.11549 11.1945C9.33065 11.4002 9.66964 11.4002 9.8848 11.1945C10.1047 10.9842 10.3545 10.8085 10.6273 10.6721L13.0889 9.44127C13.2775 9.34698 13.3966 9.15423 13.3966 8.94338V6.18244L14.5099 5.86438V10.0567C14.5099 10.3641 14.7591 10.6133 15.0665 10.6133C15.3739 10.6133 15.6232 10.3641 15.6232 10.0567V5.54627L17.446 5.02548C17.9821 4.87233 17.983 4.10847 17.446 3.95502L9.65305 1.72846C9.55312 1.69989 9.44717 1.69989 9.34723 1.72846L1.55426 3.95502C1.01818 4.10817 1.01726 4.87203 1.55426 5.02548ZM12.2834 8.59934L10.1294 9.67629C9.90792 9.78702 9.69751 9.91679 9.50016 10.0642C9.30281 9.91679 9.09237 9.78702 8.87086 9.67625L6.71696 8.59934V6.5005L9.34723 7.25201C9.4468 7.28043 9.55271 7.28069 9.65305 7.25201L12.2834 6.5005V8.59934ZM9.50016 2.8426L15.2669 4.49025L9.50016 6.13791L3.7334 4.49025L9.50016 2.8426Z" fill="#B50D0D"/>
</svg>
