<svg width="19" height="19" viewBox="0 0 19 19" fill="none" xmlns="http://www.w3.org/2000/svg">
<g clip-path="url(#clip0_738_7507)">
<path d="M7.52 18.9064C6.64509 18.9064 5.77033 18.5814 5.10309 17.9307C4.78745 17.6229 4.53691 17.2645 4.35839 16.8654C3.89658 15.8328 3.07355 15.0097 2.04092 14.5479C1.64182 14.3694 1.28341 14.1189 0.975611 13.8032C-0.328692 12.4656 -0.324682 10.2929 0.984559 8.95982C1.51721 8.41748 2.19507 8.07203 2.94482 7.96076C3.37136 7.89745 3.75063 7.70724 4.04161 7.41073L4.06418 7.38793C4.87564 6.57648 6.03302 6.22127 7.32307 6.38779C8.55946 6.54741 9.77826 7.17321 10.755 8.14997C11.7318 9.12672 12.3576 10.3455 12.5172 11.5819C12.6837 12.872 12.3285 14.0293 11.517 14.8408L11.4965 14.8612C11.1992 15.1535 11.0088 15.5332 10.9458 15.9594C10.8349 16.7097 10.4895 17.388 9.94712 17.9211C9.27891 18.5778 8.39936 18.9064 7.52 18.9064ZM6.72069 7.45855C5.99704 7.45855 5.33563 7.69176 4.8518 8.17559L4.83684 8.1907C4.37436 8.66197 3.77673 8.96339 3.1083 9.0626C2.60023 9.138 2.14064 9.37236 1.77919 9.74035C0.891105 10.6445 0.888358 12.1183 1.77307 13.0256C1.98233 13.2402 2.22545 13.4103 2.49563 13.5311C3.7787 14.105 4.80134 15.1276 5.37517 16.4107C5.49602 16.6809 5.66611 16.924 5.88068 17.1332C6.78822 18.0182 8.26221 18.0152 9.16641 17.1267C9.5345 16.765 9.76879 16.305 9.84394 15.7966C9.9427 15.1285 10.244 14.5305 10.7154 14.0672L10.7294 14.0533C11.2912 13.4915 11.5338 12.6645 11.4124 11.7246C11.2842 10.731 10.771 9.74128 9.96735 8.93766C9.00011 7.97034 7.79234 7.45855 6.72069 7.45855Z" fill="#B50D0D"/>
<path d="M11.2288 5.73761C10.5864 5.73761 10.0111 5.51098 9.58395 5.08381C9.08538 4.58528 8.86001 3.88484 8.9493 3.11152C9.03303 2.38635 9.38887 1.67726 9.9513 1.11484C10.5137 0.552443 11.2228 0.196599 11.9479 0.112836C12.7213 0.0236522 13.4217 0.248988 13.9202 0.747481C14.4188 1.24605 14.6442 1.94649 14.5549 2.71981C14.4712 3.44497 14.1153 4.15406 13.5529 4.71645C12.9905 5.27888 12.2814 5.63473 11.5562 5.71845C11.4455 5.73126 11.3362 5.73761 11.2288 5.73761ZM12.2703 1.20792C12.2069 1.20792 12.1419 1.2117 12.0757 1.21935C11.5991 1.27438 11.1244 1.51698 10.7389 1.90241C10.3534 2.28789 10.1108 2.76266 10.0558 3.23924C10.0063 3.66771 10.1185 4.04305 10.3716 4.29616C10.6247 4.54926 11.0001 4.66136 11.4285 4.61194C11.9051 4.55691 12.3798 4.31431 12.7653 3.92884C13.1508 3.54337 13.3934 3.06863 13.4484 2.59205C13.4979 2.16358 13.3857 1.78824 13.1326 1.53513C12.9186 1.32116 12.6173 1.20792 12.2703 1.20792Z" fill="#B50D0D"/>
<path d="M3.75182 6.0208C3.10938 6.0208 2.5341 5.79417 2.10693 5.36704C1.60836 4.86847 1.38295 4.16807 1.47225 3.39475C1.55597 2.66958 1.91182 1.96049 2.47425 1.39806C3.03664 0.835669 3.74576 0.479825 4.47089 0.396063C5.24433 0.306805 5.94465 0.532214 6.44318 1.03071C6.94175 1.52928 7.16716 2.22971 7.07787 3.00304C6.99414 3.7282 6.6383 4.43729 6.07587 4.99968C5.51347 5.56211 4.80435 5.91796 4.07918 6.00168C3.9685 6.01449 3.85919 6.0208 3.75182 6.0208ZM4.79332 1.49114C4.72987 1.49114 4.66493 1.49493 4.59869 1.50258C4.1221 1.5576 3.64734 1.80021 3.2619 2.18564C2.87639 2.57115 2.63383 3.04592 2.57877 3.52251C2.52931 3.95097 2.64144 4.32631 2.89455 4.57942C3.14762 4.83249 3.52288 4.94473 3.95146 4.89516C4.42805 4.84014 4.90281 4.59754 5.28829 4.21206C5.67376 3.82659 5.91636 3.35182 5.97135 2.87527C6.02084 2.44681 5.90867 2.07147 5.6556 1.81836C5.44163 1.60439 5.14025 1.49114 4.79332 1.49114Z" fill="#B50D0D"/>
<path d="M15.6546 10.1634C15.0122 10.1634 14.4369 9.93677 14.0098 9.50964C13.5112 9.01107 13.2858 8.31067 13.3751 7.53735C13.4588 6.81218 13.8146 6.10309 14.3771 5.54066C14.9395 4.97827 15.6486 4.62243 16.3738 4.5387C17.147 4.44926 17.8475 4.67482 18.3461 5.17335C18.8446 5.67188 19.07 6.37231 18.9807 7.14564C18.897 7.8708 18.5412 8.57989 17.9788 9.14232C17.4163 9.70471 16.7072 10.0606 15.9821 10.1443C15.8713 10.1571 15.762 10.1634 15.6546 10.1634ZM16.6962 5.63375C16.6327 5.63375 16.5678 5.63753 16.5015 5.64518C16.0249 5.70021 15.5502 5.94281 15.1647 6.32828C14.7792 6.71375 14.5366 7.18848 14.4816 7.66507C14.4321 8.09354 14.5443 8.46887 14.7974 8.72198C15.0505 8.97509 15.4259 9.08733 15.8543 9.03773C16.3309 8.9827 16.8056 8.7401 17.1911 8.35467C17.5766 7.96919 17.8192 7.49443 17.8742 7.01784C17.9237 6.58937 17.8115 6.21403 17.5584 5.96093C17.3445 5.74695 17.0431 5.63375 16.6962 5.63375Z" fill="#B50D0D"/>
<path d="M15.2801 17.5501C14.6377 17.5501 14.0624 17.3235 13.6353 16.8963C13.1367 16.3978 12.9113 15.6974 13.0006 14.9241C13.0843 14.1989 13.4401 13.4898 14.0026 12.9274C14.565 12.365 15.2741 12.0091 15.9993 11.9254C16.7725 11.836 17.473 12.0615 17.9715 12.5601C18.4701 13.0586 18.6955 13.759 18.6062 14.5323C18.5225 15.2575 18.1667 15.9666 17.6043 16.529C17.0418 17.0914 16.3327 17.4473 15.6076 17.531C15.4968 17.5438 15.3875 17.5501 15.2801 17.5501ZM16.3216 13.0205C16.2582 13.0205 16.1932 13.0243 16.127 13.0319C15.6504 13.087 15.1757 13.3296 14.7902 13.715C14.4047 14.1005 14.1621 14.5752 14.1071 15.0518C14.0576 15.4803 14.1698 15.8556 14.4229 16.1087C14.6759 16.3618 15.0514 16.474 15.4798 16.4245C15.9564 16.3694 16.4311 16.1268 16.8166 15.7414C17.2021 15.3559 17.4447 14.8812 17.4997 14.4046C17.5492 13.9761 17.437 13.6008 17.1839 13.3477C16.97 13.1337 16.6686 13.0205 16.3216 13.0205Z" fill="#B50D0D"/>
</g>
<defs>
<clipPath id="clip0_738_7507">
<rect width="19" height="19" fill="white"/>
</clipPath>
</defs>
</svg>
