<svg width="19" height="19" viewBox="0 0 19 19" fill="none" xmlns="http://www.w3.org/2000/svg">
<path fill-rule="evenodd" clip-rule="evenodd" d="M0.791504 9.49935C0.791504 4.68987 4.69036 0.791016 9.49984 0.791016C14.3093 0.791016 18.2082 4.68987 18.2082 9.49935C18.2082 10.3661 17.7093 10.9295 17.1215 11.2701C16.5786 11.5847 15.8884 11.7572 15.2773 11.8895C15.0823 11.9318 14.8937 11.9703 14.7106 12.0076C14.2725 12.097 13.8665 12.1799 13.4839 12.2912C12.9351 12.4508 12.6205 12.6223 12.4674 12.7951L11.8748 12.2702L12.4674 12.7951C12.2411 13.0506 12.096 13.4152 12.0014 13.9128C11.9339 14.2678 11.9023 14.6169 11.8681 14.9954C11.8523 15.1703 11.8359 15.3516 11.8152 15.5426C11.757 16.0783 11.6601 16.7355 11.335 17.2595C11.1605 17.5408 10.9177 17.7903 10.5869 17.9634C10.2605 18.1343 9.89286 18.2077 9.49984 18.2077C4.69036 18.2077 0.791504 14.3088 0.791504 9.49935ZM9.49984 2.37435C5.56481 2.37435 2.37484 5.56432 2.37484 9.49935C2.37484 13.4344 5.56481 16.6244 9.49984 16.6244C9.69662 16.6244 9.80022 16.5881 9.85261 16.5607C9.90056 16.5356 9.94406 16.4982 9.98954 16.4249C10.1043 16.2398 10.1818 15.9176 10.2411 15.3715C10.2554 15.2403 10.2687 15.094 10.2828 14.9383C10.3201 14.5275 10.3633 14.0516 10.4459 13.617C10.5639 12.9963 10.7834 12.3083 11.2823 11.7452C11.7479 11.2196 12.4354 10.9472 13.0417 10.7708C13.4907 10.6402 13.9967 10.5369 14.4591 10.4426C14.6275 10.4082 14.7902 10.375 14.9422 10.3421C15.5618 10.2079 16.025 10.0755 16.3278 9.9001C16.5857 9.75069 16.6248 9.63911 16.6248 9.49935C16.6248 5.56432 13.4349 2.37435 9.49984 2.37435ZM9.104 5.54102C9.104 4.44793 9.99009 3.56185 11.0832 3.56185C12.1763 3.56185 13.0623 4.44793 13.0623 5.54102C13.0623 6.6341 12.1763 7.52018 11.0832 7.52018C9.99009 7.52018 9.104 6.6341 9.104 5.54102ZM11.0832 5.14518C10.8645 5.14518 10.6873 5.32239 10.6873 5.54102C10.6873 5.75965 10.8645 5.93685 11.0832 5.93685C11.3018 5.93685 11.479 5.75965 11.479 5.54102C11.479 5.32239 11.3018 5.14518 11.0832 5.14518ZM4.354 7.12435C4.354 6.03127 5.24009 5.14518 6.33317 5.14518C7.42625 5.14518 8.31234 6.03127 8.31234 7.12435C8.31234 8.21743 7.42625 9.10352 6.33317 9.10352C5.24009 9.10352 4.354 8.21743 4.354 7.12435ZM6.33317 6.72852C6.11454 6.72852 5.93734 6.90572 5.93734 7.12435C5.93734 7.34298 6.11454 7.52018 6.33317 7.52018C6.5518 7.52018 6.729 7.34298 6.729 7.12435C6.729 6.90572 6.5518 6.72852 6.33317 6.72852ZM4.74984 12.2702C4.74984 11.1771 5.63592 10.291 6.729 10.291C7.82209 10.291 8.70817 11.1771 8.70817 12.2702C8.70817 13.3633 7.82209 14.2494 6.729 14.2494C5.63592 14.2494 4.74984 13.3633 4.74984 12.2702ZM6.729 11.8744C6.51037 11.8744 6.33317 12.0516 6.33317 12.2702C6.33317 12.4888 6.51037 12.666 6.729 12.666C6.94764 12.666 7.12484 12.4888 7.12484 12.2702C7.12484 12.0516 6.94764 11.8744 6.729 11.8744Z" fill="#B50D0D"/>
</svg>
