<svg width="19" height="19" viewBox="0 0 19 19" fill="none" xmlns="http://www.w3.org/2000/svg">
<path d="M9.5 0C4.26169 0 0 4.26169 0 9.5C0 14.7383 4.26169 19 9.5 19C14.7383 19 19 14.7383 19 9.5C19 4.26169 14.7383 0 9.5 0ZM5.48409 16.645C5.46356 16.6353 3.29436 15.6928 4.22446 12.2938C4.46123 11.4284 5.11042 10.6342 5.79775 9.79332C6.90007 8.44457 8.14953 6.91594 8.18145 4.59135C8.18235 4.52616 8.1819 4.46193 8.18017 4.39866C8.40113 4.36866 8.62498 4.34582 8.85157 4.33098V17.6775C7.67248 17.5849 6.50088 17.1273 5.48409 16.645ZM1.43741 11.0133C1.17026 8.13565 3.72214 5.56105 6.88171 4.66799C6.82254 6.48879 5.79174 7.7513 4.79357 8.97254C4.0509 9.88115 3.28291 10.8207 2.97347 11.9515C2.75257 12.7587 2.67465 13.4611 2.69007 14.0685C2.07976 13.1616 1.54213 12.1412 1.43741 11.0133ZM7.2429 2.23388C7.03397 2.06064 6.80616 1.93199 6.57374 1.83692C7.2905 1.56229 8.0551 1.38514 8.85151 1.32258V3.03194C8.53477 3.05036 8.22239 3.08216 7.915 3.12668C7.75891 2.7749 7.53513 2.47614 7.2429 2.23388ZM11.085 3.12662C10.7776 3.08209 10.4652 3.0503 10.1485 3.03188V1.32252C10.9449 1.38508 11.7095 1.56222 12.4263 1.83686C12.1938 1.93192 11.966 2.06057 11.7572 2.23381C11.4649 2.47614 11.2412 2.7749 11.085 3.12662ZM13.601 16.5965C12.5342 17.135 11.4022 17.579 10.1485 17.6775V4.33098C10.3751 4.34582 10.5989 4.36866 10.8199 4.39866C10.8182 4.46193 10.8177 4.52616 10.8186 4.59135C10.8505 6.91594 12.1 8.44457 13.2023 9.79332C13.8896 10.6342 14.5388 11.4284 14.7756 12.2938C15.6925 15.6447 13.6844 16.5544 13.601 16.5965ZM17.5626 10.9633C17.4579 12.0911 16.9203 13.1616 16.3099 14.0685C16.3253 13.4611 16.2474 12.7587 16.0265 11.9515C15.7171 10.8207 14.9492 9.88115 14.2064 8.97254C13.2083 7.7513 12.1775 6.48879 12.1183 4.66799C15.2779 5.56105 17.8297 8.08562 17.5626 10.9633ZM17.0184 6.221C15.8775 4.91946 14.2753 3.9236 12.4176 3.40689C12.4664 3.34304 12.5209 3.28578 12.5814 3.23525C13.0149 2.87277 13.9143 2.85883 14.3635 2.89856C15.5154 3.74933 16.4374 4.89407 17.0184 6.221ZM4.6376 2.89772C5.07901 2.85915 5.98014 2.87156 6.41509 3.23224C6.47689 3.28348 6.53255 3.34189 6.58225 3.40695C4.72467 3.9236 3.12246 4.91953 1.98163 6.221C2.56276 4.89362 3.48519 3.74869 4.6376 2.89772Z" fill="#B50D0D"/>
</svg>
