<svg width="16" height="19" viewBox="0 0 16 19" fill="none" xmlns="http://www.w3.org/2000/svg">
<path d="M15.2448 4.01884C15.2246 3.99135 15.1993 3.9681 15.1701 3.95042C15.141 3.93274 15.1086 3.92099 15.075 3.91582L6.69002 2.62442L6.22481 1.192C6.16694 1.01423 6.04086 0.866719 5.87427 0.78188C5.70768 0.697041 5.51422 0.681818 5.33642 0.739558L0.819017 2.20716C0.730911 2.2357 0.649296 2.28133 0.57884 2.34144C0.508384 2.40155 0.450469 2.47496 0.408407 2.55747C0.366345 2.63999 0.340961 2.72998 0.333707 2.82231C0.326454 2.91464 0.337473 3.00749 0.366134 3.09556L1.83359 7.61325C1.86219 7.70133 1.90787 7.7829 1.96801 7.85332C2.02815 7.92373 2.10158 7.98161 2.18409 8.02364C2.26661 8.06567 2.3566 8.09103 2.44892 8.09827C2.54123 8.10551 2.63408 8.09449 2.72213 8.06584L5.6848 7.10337L4.54376 14.5131C4.5385 14.5468 4.53995 14.5813 4.54802 14.6145C4.55609 14.6477 4.57063 14.679 4.5908 14.7065C4.61097 14.7341 4.63637 14.7574 4.66557 14.7752C4.69476 14.7929 4.72716 14.8047 4.76092 14.8099L13.1966 16.1101C13.2097 16.1122 13.223 16.1132 13.2363 16.1132C13.2983 16.1132 13.3582 16.0909 13.4053 16.0505C13.4524 16.0101 13.4834 15.9542 13.4929 15.8929L15.292 4.21255C15.2973 4.17874 15.2958 4.14422 15.2877 4.11098C15.2796 4.07773 15.265 4.04642 15.2448 4.01884ZM2.56167 7.57184C2.5149 7.58678 2.46412 7.58269 2.42034 7.56047C2.37655 7.53824 2.34328 7.49966 2.32774 7.45309L0.85954 2.9351C0.844358 2.88833 0.84833 2.83744 0.870588 2.7936C0.892846 2.74975 0.931574 2.71651 0.97829 2.70116L5.49702 1.23371C5.54376 1.21849 5.59461 1.22245 5.63842 1.24472C5.68224 1.26699 5.71541 1.30574 5.73067 1.35246L7.19782 5.8706C7.21304 5.91733 7.20907 5.96819 7.18681 6.012C7.16454 6.05581 7.12579 6.08899 7.07907 6.10424L5.94249 6.47355C5.94017 6.47416 5.93789 6.4749 5.93566 6.47578L2.56167 7.57184ZM7.23968 6.59824C7.41741 6.54036 7.56491 6.41431 7.64977 6.24776C7.73463 6.08121 7.74991 5.8878 7.69227 5.70999L7.44452 4.94732L7.56194 4.18524L13.7237 5.13346L12.2754 14.5399L6.11423 13.5917L7.18906 6.61516L7.23968 6.59824ZM13.0191 15.5561L5.09684 14.3355L6.23817 6.92361L6.63509 6.79462L5.5607 13.7695C5.55543 13.8033 5.55686 13.8378 5.56492 13.871C5.57299 13.9042 5.58752 13.9355 5.60769 13.963C5.62787 13.9906 5.65328 14.0139 5.68248 14.0317C5.71168 14.0494 5.7441 14.0612 5.77787 14.0664L12.4531 15.0936C12.4663 15.0955 12.4796 15.0965 12.4929 15.0966C12.5549 15.0965 12.6148 15.0743 12.6618 15.0339C12.7089 14.9936 12.7399 14.9377 12.7494 14.8764L14.2768 4.95637C14.2821 4.92261 14.2807 4.88815 14.2726 4.85494C14.2645 4.82174 14.25 4.79045 14.2298 4.76288C14.2096 4.7353 14.1842 4.71197 14.155 4.69423C14.1258 4.67649 14.0934 4.66469 14.0596 4.6595L7.38441 3.63231C7.35063 3.62685 7.3161 3.62815 7.28283 3.63614C7.24956 3.64412 7.2182 3.65864 7.19058 3.67884C7.16297 3.69905 7.13963 3.72453 7.12194 3.75382C7.10425 3.78311 7.09256 3.81562 7.08753 3.84947L6.86933 3.17764L14.7384 4.38964L13.0191 15.5561Z" fill="#B50D0D"/>
<path d="M12.4413 9.31417C12.5095 9.32467 12.579 9.3077 12.6347 9.26698C12.6903 9.22627 12.7276 9.16514 12.7382 9.09701L12.8672 8.25893C12.8727 8.22505 12.8715 8.19041 12.8636 8.157C12.8557 8.12359 12.8413 8.09207 12.8211 8.06428C12.801 8.03649 12.7755 8.01297 12.7462 7.99508C12.7169 7.97719 12.6843 7.96529 12.6504 7.96006C12.6165 7.95483 12.5819 7.95638 12.5485 7.96462C12.5152 7.97286 12.4838 7.98762 12.4562 8.00806C12.4287 8.02849 12.4054 8.05419 12.3878 8.08367C12.3702 8.11315 12.3586 8.14583 12.3537 8.17981L12.2247 9.01789C12.2142 9.08589 12.2311 9.1553 12.2717 9.21086C12.3123 9.26641 12.3733 9.30357 12.4413 9.31417Z" fill="#B50D0D"/>
<path d="M8.52731 11.5378C8.63671 11.5675 8.7473 11.5911 8.85759 11.6164L8.7372 12.4008C8.67155 12.3999 8.60801 12.424 8.55942 12.4681C8.51083 12.5123 8.4808 12.5732 8.47541 12.6387C8.47002 12.7041 8.48967 12.7691 8.53038 12.8207C8.57109 12.8722 8.62984 12.9063 8.69475 12.9162L10.0158 13.1194C10.029 13.1213 10.0423 13.1223 10.0556 13.1223C10.1178 13.1224 10.1778 13.1001 10.2249 13.0596C10.272 13.0191 10.303 12.963 10.3122 12.9015C10.3214 12.8401 10.3082 12.7774 10.275 12.7248C10.2418 12.6723 10.1909 12.6334 10.1315 12.6153L10.2519 11.8311C10.3645 11.8401 10.4772 11.8504 10.5901 11.8554H10.621C10.7142 11.8555 10.8065 11.837 10.8925 11.801C10.9785 11.765 11.0565 11.7123 11.1219 11.6459C11.1873 11.5794 11.2388 11.5006 11.2734 11.4141C11.308 11.3275 11.325 11.2349 11.3234 11.1417C11.3227 10.9686 11.2575 10.8018 11.1405 10.6741C11.0235 10.5464 10.8631 10.4669 10.6906 10.4511L11.2177 7.02068C11.226 6.96682 11.2172 6.91171 11.1924 6.86318L10.6728 5.8449C10.6541 5.80824 10.627 5.77654 10.5936 5.75241C10.5603 5.72829 10.5217 5.71244 10.481 5.70616C10.4403 5.69989 10.3988 5.70336 10.3597 5.71631C10.3206 5.72926 10.2852 5.7513 10.2563 5.78063L9.45475 6.59555C9.41668 6.63457 9.39173 6.68448 9.38335 6.73835L8.85536 10.1693C8.67604 10.1317 8.4891 10.1654 8.33428 10.2634C8.17946 10.3614 8.06895 10.5159 8.02623 10.6941C7.98352 10.8723 8.01197 11.0601 8.10553 11.2177C8.1991 11.3752 8.35041 11.49 8.52731 11.5378ZM9.61803 12.5323L9.25124 12.4759L9.36732 11.7189C9.48934 11.74 9.61165 11.7588 9.73426 11.7753L9.61803 12.5323ZM9.88344 6.90059L10.3733 6.40258L10.6908 7.02498L10.1713 10.4094C9.90011 10.3813 9.6308 10.3398 9.36331 10.2851L9.88344 6.90059ZM8.53741 10.7954C8.55153 10.7516 8.58192 10.7149 8.62232 10.6928C8.66272 10.6707 8.71005 10.6649 8.75457 10.6767C8.82879 10.6966 8.90509 10.7125 8.9802 10.7303C8.99815 10.7368 9.01677 10.7413 9.03571 10.7436C9.46407 10.843 9.89927 10.9101 10.3377 10.9445C10.3423 10.9455 10.3464 10.9473 10.351 10.948C10.3642 10.95 10.3775 10.951 10.3908 10.951C10.3964 10.951 10.4018 10.95 10.4073 10.9495C10.4822 10.9549 10.5569 10.9623 10.6319 10.9657C10.6676 10.9686 10.7017 10.9817 10.7302 11.0035C10.7586 11.0253 10.7802 11.0547 10.7924 11.0885C10.8046 11.1222 10.8068 11.1587 10.7987 11.1936C10.7907 11.2285 10.7728 11.2604 10.7472 11.2854C10.7297 11.303 10.7086 11.3166 10.6854 11.3254C10.6622 11.3341 10.6375 11.3379 10.6127 11.3363C10.1352 11.3144 9.66005 11.2552 9.19172 11.1593H9.19053H9.18979C9.01241 11.1232 8.83606 11.0828 8.66135 11.0364C8.63743 11.03 8.61506 11.0189 8.59563 11.0035C8.5762 10.9882 8.56012 10.9691 8.54839 10.9473C8.536 10.9242 8.52861 10.8987 8.52672 10.8725C8.52483 10.8464 8.52847 10.8201 8.53741 10.7954Z" fill="#B50D0D"/>
<path d="M4.76259 16.9284L4.71806 16.7712C4.64477 16.3646 4.60806 15.9523 4.60837 15.5392C4.60788 15.5292 4.60679 15.5193 4.6051 15.5095C4.60808 15.4726 4.60302 15.4355 4.59026 15.4008C4.58358 15.3842 3.98166 13.8489 3.85416 12.6538H3.9496C4.0185 12.6538 4.08457 12.6265 4.13328 12.5777C4.182 12.529 4.20937 12.463 4.20937 12.3941V11.5034C4.20931 11.4511 4.19339 11.4 4.16372 11.3568C4.13404 11.3137 4.092 11.2806 4.04312 11.2618C4.15649 11.0526 4.21358 10.8176 4.20879 10.5798C4.204 10.3419 4.1375 10.1094 4.01579 9.905C3.89409 9.70059 3.72137 9.53131 3.51455 9.41375C3.30773 9.29619 3.07392 9.23438 2.83602 9.23438C2.59813 9.23438 2.36431 9.29619 2.1575 9.41375C1.95068 9.53131 1.77795 9.70059 1.65625 9.905C1.53455 10.1094 1.46804 10.3419 1.46325 10.5798C1.45847 10.8176 1.51556 11.0526 1.62893 11.2618C1.58008 11.2805 1.53804 11.3136 1.50836 11.3567C1.47868 11.3998 1.46276 11.4508 1.46268 11.5031V12.3938C1.46266 12.4279 1.46937 12.4617 1.48241 12.4932C1.49546 12.5247 1.51459 12.5534 1.53872 12.5775C1.56285 12.6016 1.59149 12.6207 1.62301 12.6338C1.65454 12.6468 1.68833 12.6535 1.72245 12.6535H1.8173C1.69023 13.8476 1.08906 15.3848 1.08268 15.4008C1.07022 15.435 1.06516 15.4715 1.06784 15.5078C1.0662 15.5182 1.06515 15.5286 1.06472 15.539C1.06472 15.6708 1.05522 15.9192 1.03503 16.1785C1.02438 16.3782 0.997772 16.5767 0.955469 16.7722L0.910937 16.9281C0.77444 16.9767 0.656284 17.0663 0.572599 17.1846C0.488914 17.3029 0.443781 17.4442 0.443359 17.5891V18.0344C0.44334 18.0685 0.450046 18.1023 0.463093 18.1338C0.476141 18.1653 0.495274 18.194 0.519399 18.2181C0.543525 18.2422 0.572169 18.2614 0.603694 18.2744C0.635219 18.2875 0.669007 18.2942 0.703125 18.2942H4.9707C5.0396 18.2942 5.10567 18.2668 5.15439 18.2181C5.2031 18.1694 5.23047 18.1033 5.23047 18.0344V17.5891C5.22994 17.4442 5.18473 17.303 5.101 17.1848C5.01726 17.0665 4.89909 16.977 4.76259 16.9284ZM1.55204 16.2191C1.56332 16.0805 1.57238 15.9327 1.57787 15.7989H4.09448C4.10261 16.1632 4.14154 16.5262 4.21085 16.884H1.46179C1.50797 16.6649 1.53814 16.4427 1.55204 16.2191ZM2.10304 12.1341H1.98221V11.7631H3.68924V12.1341H2.10304ZM2.83543 9.75915C3.00781 9.75877 3.17624 9.81073 3.31845 9.90815C3.46066 10.0056 3.56995 10.1439 3.63187 10.3047C3.69379 10.4656 3.70542 10.6415 3.66523 10.8091C3.62504 10.9767 3.53491 11.1282 3.40677 11.2435H2.2638C2.13565 11.1282 2.04553 10.9767 2.00533 10.8091C1.96514 10.6415 1.97677 10.4656 2.03869 10.3047C2.10061 10.1439 2.2099 10.0056 2.35211 9.90815C2.49432 9.81073 2.66275 9.75877 2.83513 9.75915H2.83543ZM3.33166 12.6537C3.42354 13.6096 3.79671 14.7419 3.98998 15.2794H1.68207C1.87504 14.742 2.24747 13.6098 2.3392 12.6537H3.33166ZM4.70975 17.7748H0.961703V17.5891C0.961743 17.5399 0.981304 17.4927 1.01609 17.4579C1.05088 17.4231 1.09805 17.4036 1.14725 17.4035H4.5242C4.57339 17.4036 4.62054 17.4232 4.65532 17.458C4.6901 17.4927 4.70967 17.5399 4.70975 17.5891V17.7748Z" fill="#B50D0D"/>
<path d="M3.66099 5.09046C3.53673 5.02719 3.3965 5.00217 3.25803 5.01857C3.11955 5.03497 2.98905 5.09205 2.88301 5.1826C2.77697 5.27315 2.70015 5.39311 2.66227 5.52731C2.62438 5.66151 2.62713 5.80392 2.67017 5.93656C2.70601 6.04682 2.76849 6.14654 2.85207 6.22689C2.93565 6.30724 3.03775 6.36574 3.14934 6.39721C3.26092 6.42868 3.37855 6.43215 3.4918 6.40731C3.60504 6.38246 3.71042 6.33008 3.79858 6.25479C3.88675 6.1795 3.95499 6.08363 3.99726 5.97567C4.03953 5.86771 4.05453 5.751 4.04092 5.63586C4.02732 5.52072 3.98553 5.41071 3.91926 5.31558C3.85299 5.22045 3.76428 5.14313 3.66099 5.09046ZM3.50617 5.80296C3.49512 5.82469 3.47988 5.84401 3.46133 5.85983C3.44279 5.87565 3.4213 5.88765 3.39811 5.89514C3.36904 5.90472 3.33805 5.90697 3.3079 5.90167C3.27775 5.89638 3.24938 5.88372 3.22531 5.86481C3.20124 5.84591 3.18221 5.82135 3.16992 5.79331C3.15764 5.76528 3.15247 5.73464 3.15489 5.70413C3.1573 5.67361 3.16722 5.64417 3.18376 5.61842C3.20031 5.59266 3.22296 5.5714 3.2497 5.55651C3.27645 5.54163 3.30646 5.53359 3.33707 5.5331C3.36767 5.53262 3.39792 5.53971 3.42512 5.55374C3.46898 5.57614 3.50214 5.61504 3.51734 5.66188C3.53253 5.70872 3.52852 5.75968 3.50617 5.80356V5.80296Z" fill="#B50D0D"/>
<path d="M2.9168 4.41223C3.00489 4.38369 3.08649 4.33807 3.15693 4.27797C3.22738 4.21787 3.28529 4.14447 3.32735 4.06198C3.36941 3.97948 3.39479 3.88951 3.40206 3.79719C3.40932 3.70488 3.39832 3.61204 3.36968 3.52398C3.32944 3.40033 3.25579 3.29022 3.15687 3.20582C3.05794 3.12141 2.93761 3.06601 2.80916 3.04573C2.68072 3.02546 2.54917 3.0411 2.42906 3.09092C2.30895 3.14075 2.20495 3.22282 2.12858 3.32806C2.0522 3.4333 2.00642 3.55761 1.99628 3.68725C1.98615 3.8169 2.01207 3.94681 2.07117 4.06264C2.13027 4.17847 2.22025 4.2757 2.33116 4.34358C2.44208 4.41146 2.5696 4.44734 2.69964 4.44727C2.77342 4.44717 2.84673 4.43535 2.9168 4.41223ZM2.52225 3.79934C2.51077 3.76439 2.50992 3.72682 2.5198 3.69139C2.52968 3.65596 2.54986 3.62426 2.57777 3.6003C2.60569 3.57634 2.64008 3.56121 2.6766 3.55681C2.71313 3.55242 2.75013 3.55896 2.78293 3.57561C2.81573 3.59226 2.84285 3.61827 2.86086 3.65034C2.87887 3.68242 2.88695 3.71912 2.88409 3.75579C2.88123 3.79246 2.86755 3.82746 2.84478 3.85635C2.82201 3.88524 2.79118 3.90673 2.75619 3.91809C2.70942 3.93327 2.65854 3.9293 2.61469 3.90704C2.57084 3.88478 2.5376 3.84605 2.52225 3.79934Z" fill="#B50D0D"/>
<path d="M5.98814 5.38392C6.03045 5.30152 6.05597 5.21154 6.06324 5.11919C6.0705 5.02685 6.05935 4.93399 6.03045 4.84598C5.98001 4.69098 5.8774 4.55826 5.74009 4.47043C5.60278 4.38259 5.43926 4.34508 5.2774 4.36428C5.11553 4.38348 4.96533 4.4582 4.85238 4.57572C4.73942 4.69324 4.67071 4.84628 4.65793 5.00878C4.64515 5.17128 4.68911 5.33318 4.78231 5.46691C4.87551 5.60063 5.01219 5.69791 5.16907 5.74217C5.32594 5.78643 5.49331 5.77493 5.64266 5.70963C5.79201 5.64434 5.91411 5.52928 5.98814 5.38407V5.38392ZM5.52532 5.14805C5.50581 5.18633 5.47364 5.21666 5.43428 5.23387C5.39493 5.25109 5.35082 5.25413 5.30947 5.24247C5.26812 5.23081 5.2321 5.20518 5.20753 5.16994C5.18296 5.1347 5.17138 5.09203 5.17474 5.04921C5.1781 5.00638 5.19621 4.96604 5.22598 4.93507C5.25574 4.9041 5.29533 4.8844 5.33799 4.87934C5.38065 4.87428 5.42374 4.88417 5.45993 4.90732C5.49612 4.93047 5.52316 4.96544 5.53645 5.0063C5.54401 5.02949 5.54692 5.05396 5.54501 5.07828C5.5431 5.10261 5.53641 5.12632 5.52532 5.14805Z" fill="#B50D0D"/>
<path d="M4.93549 3.75717C5.10269 3.7023 5.24307 3.58645 5.32867 3.43271C5.41428 3.27896 5.43881 3.09861 5.39738 2.92759C5.35596 2.75656 5.25161 2.60743 5.10515 2.5099C4.95868 2.41236 4.78084 2.3736 4.60707 2.40132C4.4333 2.42904 4.27636 2.52122 4.16751 2.65948C4.05866 2.79775 4.0059 2.97195 4.01975 3.14737C4.03359 3.3228 4.11303 3.48656 4.24222 3.60604C4.37141 3.72552 4.54087 3.79193 4.71684 3.79205C4.79111 3.79208 4.86492 3.7803 4.93549 3.75717ZM4.63342 3.25248C4.59513 3.23298 4.56479 3.20082 4.54756 3.16146C4.53033 3.1221 4.52728 3.07798 4.53894 3.03663C4.55059 2.99527 4.57623 2.95924 4.61147 2.93467C4.64672 2.91009 4.68939 2.8985 4.73223 2.90187C4.77506 2.90524 4.8154 2.92336 4.84637 2.95313C4.87734 2.98291 4.89703 3.02251 4.90208 3.06518C4.90713 3.10784 4.89723 3.15094 4.87406 3.18713C4.85089 3.22331 4.81589 3.25034 4.77503 3.26361C4.75182 3.27112 4.72736 3.27395 4.70305 3.27194C4.67874 3.26993 4.65507 3.26311 4.63342 3.25188V3.25248Z" fill="#B50D0D"/>
</svg>
