<svg width="19" height="17" viewBox="0 0 19 17"  xmlns="http://www.w3.org/2000/svg">
<path
fill="#b50d0d"
 d="M6.41675 1.02161C6.55085 0.753403 6.82498 0.583984 7.12484 0.583984H11.8748C12.1747 0.583984 12.4488 0.753403 12.5829 1.02161L13.5516 2.95898H16.229C17.3221 2.95898 18.2082 3.84509 18.2082 4.93815V14.4382C18.2082 15.5312 17.3221 16.4173 16.229 16.4173H2.77067C1.67761 16.4173 0.791504 15.5312 0.791504 14.4382V4.93815C0.791504 3.84509 1.67761 2.95898 2.77067 2.95898H5.44806L6.41675 1.02161ZM7.21828 2.95898H11.7814L11.3856 2.16732H7.61412L7.21828 2.95898ZM2.77067 4.54232C2.55206 4.54232 2.37484 4.71954 2.37484 4.93815V14.4382C2.37484 14.6568 2.55206 14.834 2.77067 14.834H16.229C16.4476 14.834 16.6248 14.6568 16.6248 14.4382V4.93815C16.6248 4.71954 16.4476 4.54232 16.229 4.54232H2.77067ZM5.5415 9.68815C5.5415 7.50201 7.3137 5.72982 9.49984 5.72982C11.686 5.72982 13.4582 7.50201 13.4582 9.68815C13.4582 11.8743 11.686 13.6465 9.49984 13.6465C7.3137 13.6465 5.5415 11.8743 5.5415 9.68815ZM9.49984 7.31315C8.18815 7.31315 7.12484 8.37647 7.12484 9.68815C7.12484 10.9998 8.18815 12.0632 9.49984 12.0632C10.8115 12.0632 11.8748 10.9998 11.8748 9.68815C11.8748 8.37647 10.8115 7.31315 9.49984 7.31315Z" />
</svg>
