<svg width="17" height="15" viewBox="0 0 17 15" fill="none" xmlns="http://www.w3.org/2000/svg">
<path d="M16.2188 13.4377H14.7902L9.17628 3.14625L10.2088 1.25338C10.3662 0.965407 10.2599 0.605001 9.97191 0.447657C9.68394 0.290314 9.32353 0.397188 9.16619 0.684563L8.5 1.90591L7.83381 0.684563C7.67706 0.397188 7.31725 0.290314 7.02809 0.447657C6.74012 0.605001 6.63384 0.965407 6.79119 1.25338L7.82372 3.14625L2.20981 13.4377H0.78125C0.4535 13.4377 0.1875 13.7037 0.1875 14.0315C0.1875 14.3592 0.4535 14.6252 0.78125 14.6252H16.2188C16.5465 14.6252 16.8125 14.3592 16.8125 14.0315C16.8125 13.7037 16.5465 13.4377 16.2188 13.4377ZM7.3125 13.4377V11.6565C7.3125 11.0016 7.84509 10.469 8.5 10.469C9.15491 10.469 9.6875 11.0016 9.6875 11.6565V13.4377H7.3125ZM10.875 13.4377V11.6565C10.875 10.3467 9.80981 9.28147 8.5 9.28147C7.19019 9.28147 6.125 10.3467 6.125 11.6565V13.4377H3.56297L8.5 4.386L13.437 13.4377H10.875Z" fill="#B50D0D"/>
</svg>
