<svg width="19" height="19" viewBox="0 0 19 19" fill="none" xmlns="http://www.w3.org/2000/svg">
<g clip-path="url(#clip0_738_7424)">
<path d="M15.3549 0C13.7727 0 12.8225 1.01492 12.3041 1.866C11.7857 1.01495 10.8355 0 9.25335 0C7.15483 0 5.646 1.74521 5.646 3.86827C5.646 6.17267 7.43385 7.66536 10.1401 9.92486C11.7856 11.2986 11.9231 11.4377 12.3041 11.7634C12.7178 11.4203 12.8427 11.2431 14.713 9.8047C16.7046 8.2729 18.9993 6.39524 18.9993 3.86827C18.9993 1.77074 17.4757 0 15.3549 0ZM14.0343 8.9223C13.5067 9.32808 12.9203 9.77909 12.3061 10.2939C11.7986 9.85936 11.3197 9.45944 10.8536 9.07032C8.30037 6.93859 6.75925 5.65189 6.75925 3.86827C6.75925 2.29765 7.8315 1.11326 9.25335 1.11326C10.7934 1.11326 11.4897 2.5721 11.7176 3.19935L11.8508 3.56242H12.7574L12.8906 3.19935C13.1185 2.57214 13.8148 1.11326 15.3548 1.11326C16.7979 1.11326 17.8861 2.29765 17.8861 3.86827C17.8861 5.95729 15.6709 7.66346 14.0343 8.9223Z" fill="#B50D0D"/>
<path d="M10.1049 18.9228C10.4116 18.9739 10.7246 18.9998 11.0354 18.9998C12.3742 18.9998 13.6738 18.523 14.695 17.6574L18.3788 14.5747C19.1051 13.9864 19.2102 12.9192 18.6112 12.2005C18.0263 11.4988 17.006 11.3917 16.2882 11.9567L13.8998 13.9028C13.7381 14.0374 13.5623 14.1524 13.3766 14.2464C13.3895 14.1628 13.3962 14.0773 13.3962 13.9902C13.3962 13.0694 12.6471 12.3203 11.7263 12.3203H8.61711C8.23427 11.9604 7.29683 11.207 6.16005 11.207C5.02115 11.207 4.059 11.9651 3.67074 12.3203H0V17.8866H3.8506L10.1049 18.9228ZM2.22651 16.7733H1.11326V13.4335H2.22651V16.7733ZM3.33977 13.4335H4.13908C4.67107 12.8752 5.387 12.3203 6.16001 12.3203C6.92935 12.3203 7.61841 12.8657 8.13778 13.4335H11.7263C12.0332 13.4335 12.2829 13.6832 12.2829 13.9901C12.2829 14.2971 12.0332 14.5468 11.7263 14.5468H8.94315V15.66H12.1193C13.0271 15.66 13.9113 15.3405 14.6095 14.7604L16.9798 12.829C17.2204 12.6422 17.5606 12.6788 17.756 12.9132C17.9574 13.1548 17.9215 13.5138 17.6764 13.7109L13.9765 16.807C13.1559 17.5031 12.1114 17.8865 11.0354 17.8865C10.7857 17.8865 10.5343 17.8657 10.2874 17.8246L3.94218 16.7733H3.33977V13.4335Z" fill="#B50D0D"/>
</g>
<defs>
<clipPath id="clip0_738_7424">
<rect width="19" height="19" fill="white"/>
</clipPath>
</defs>
</svg>
