<svg width="19" height="19" viewBox="0 0 19 19" fill="none" xmlns="http://www.w3.org/2000/svg">
<g clip-path="url(#clip0_738_7269)">
<path d="M11.6494 3.66184C12.3798 3.07184 12.5451 2.44113 12.5552 2.01589C12.5798 0.98139 11.7629 0.224357 11.6696 0.141492C11.4386 -0.0639462 11.0848 -0.0432391 10.8794 0.187767C10.6739 0.418773 10.6946 0.772538 10.9256 0.978013C10.9309 0.982689 11.4484 1.46689 11.436 1.98936C11.4294 2.26771 11.2691 2.52993 10.9459 2.79099C10.2155 3.381 10.0502 4.01171 10.0401 4.43695C10.0155 5.47145 10.8324 6.22848 10.9256 6.31138C11.0326 6.40646 11.166 6.45329 11.2989 6.45329C11.4531 6.45329 11.6066 6.3902 11.717 6.26607C11.9224 6.03507 11.9028 5.68227 11.6718 5.47683C11.5249 5.34323 11.1465 4.90004 11.1594 4.45929C11.1675 4.18249 11.3278 3.92161 11.6494 3.66184Z" fill="#B50D0D"/>
<path d="M8.09811 3.66184C8.8285 3.07184 8.99386 2.44113 9.00392 2.01589C9.02848 0.98139 8.21159 0.224357 8.11834 0.141492C7.8874 -0.0639462 7.53357 -0.0432391 7.32809 0.187767C7.12265 0.418773 7.14336 0.772538 7.37437 0.978013C7.3796 0.982689 7.89713 1.46689 7.88473 1.98936C7.87813 2.26771 7.71781 2.52993 7.39463 2.79099C6.66424 3.381 6.49888 4.01171 6.48882 4.43695C6.46426 5.47145 7.28115 6.22848 7.37437 6.31138C7.48128 6.40646 7.61472 6.45329 7.74761 6.45329C7.90184 6.45329 8.05536 6.3902 8.16573 6.26607C8.37116 6.03507 8.35157 5.68227 8.12056 5.47683C7.97365 5.34323 7.5952 4.90004 7.60808 4.45929C7.61621 4.18249 7.77648 3.92161 8.09811 3.66184Z" fill="#B50D0D"/>
<path d="M16.1111 9.13433H15.4487V8.72382C15.4487 8.4147 15.1981 8.16406 14.8889 8.16406H0.602728C0.293606 8.16406 0.0429688 8.41466 0.0429688 8.72382V11.678C0.0429688 14.2884 1.48783 16.5838 3.65702 17.8804H0.603062C0.29394 17.8804 0.0433027 18.131 0.0433027 18.4402C0.0433027 18.7493 0.293866 18.9999 0.603062 18.9999H14.8889C15.1981 18.9999 15.4487 18.7493 15.4487 18.4402C15.4487 18.131 15.1981 17.8804 14.8889 17.8804H11.8346C13.0682 17.1431 14.0674 16.0829 14.6999 14.8252H16.1112C17.6802 14.8252 18.9567 13.5488 18.9567 11.9798C18.9567 10.4108 17.6801 9.13433 16.1111 9.13433ZM14.3292 11.678C14.3291 15.098 11.3759 17.8804 7.74581 17.8804C4.11577 17.8804 1.16249 15.098 1.16249 11.678V9.28358H14.3291V11.678H14.3292ZM16.1111 13.7058H15.1479C15.3435 13.0616 15.4487 12.3813 15.4487 11.678V10.2538H16.1111C17.0628 10.2538 17.8371 11.0281 17.8371 11.9798C17.8371 12.9315 17.0628 13.7058 16.1111 13.7058Z" fill="#B50D0D"/>
<path d="M4.54635 3.66184C5.27674 3.07184 5.4421 2.44113 5.45216 2.01589C5.47672 0.98139 4.65983 0.224357 4.56658 0.141492C4.33561 -0.0639462 3.98181 -0.0432391 3.77633 0.187767C3.57089 0.418736 3.5916 0.772538 3.82261 0.978013C3.82784 0.982689 4.34537 1.46689 4.33297 1.98936C4.32637 2.26771 4.16606 2.52993 3.84287 2.791C3.11248 3.381 2.94712 4.01171 2.93706 4.43695C2.91254 5.47141 3.72943 6.22844 3.82264 6.31135C3.9293 6.4062 4.06211 6.45284 4.19444 6.45284C4.34871 6.45284 4.5023 6.38942 4.61293 6.26507C4.81837 6.03406 4.79766 5.6803 4.56665 5.47482C4.56142 5.47015 4.04389 4.98594 4.05629 4.46348C4.06282 4.18512 4.22313 3.92287 4.54635 3.66184Z" fill="#B50D0D"/>
</g>
<defs>
<clipPath id="clip0_738_7269">
<rect width="19" height="19" fill="white"/>
</clipPath>
</defs>
</svg>
