<svg width="19" height="19" viewBox="0 0 19 19" fill="none" xmlns="http://www.w3.org/2000/svg">
<path fill-rule="evenodd" clip-rule="evenodd" d="M18.189 1.40907C18.285 1.83563 18.017 2.25924 17.5905 2.35521L13.4583 3.28494V8.70785H17.4167C17.8539 8.70785 18.2083 9.06229 18.2083 9.49952C18.2083 11.8404 17.5009 14.0256 16.0198 15.6338C14.5289 17.2526 12.3261 18.2079 9.50001 18.2079C6.67389 18.2079 4.47113 17.2526 2.98019 15.6338C1.49907 14.0256 0.791675 11.8404 0.791675 9.49952C0.791675 9.06229 1.14612 8.70785 1.58334 8.70785H2.37501V5.77869L1.75712 5.91771C1.33056 6.01369 0.906961 5.7457 0.810984 5.31913C0.715008 4.89257 0.983 4.46897 1.40956 4.373L2.37501 4.15577V3.95785C2.37501 3.52063 2.72945 3.16619 3.16668 3.16619C3.55088 3.16619 3.87116 3.43988 3.94319 3.80293L5.54168 3.44327V3.16619C5.54168 2.72896 5.89612 2.37452 6.33334 2.37452C6.74414 2.37452 7.08186 2.68741 7.12118 3.08788L8.70834 2.73077V2.37452C8.70834 1.9373 9.06278 1.58285 9.50001 1.58285C9.93723 1.58285 10.2917 1.9373 10.2917 2.37452L11.875 2.01827V1.58285C11.875 1.14563 12.2294 0.791187 12.6667 0.791187C13.1039 0.791187 13.4583 1.14563 13.4583 1.58285V1.66202L17.2429 0.810496C17.6695 0.71452 18.0931 0.982512 18.189 1.40907ZM11.875 3.64119L10.2917 3.99744V8.70785H11.875V3.64119ZM2.40696 10.2912C2.54641 11.9908 3.14016 13.4703 4.14484 14.5611C5.29279 15.8076 7.04836 16.6245 9.50001 16.6245C11.9517 16.6245 13.7072 15.8076 14.8552 14.5611C15.8599 13.4703 16.4536 11.9908 16.5931 10.2912H2.40696ZM3.95834 8.70785H5.54168V5.06619L3.95834 5.42244V8.70785ZM7.12501 4.70994V8.70785H8.70834V4.35369L7.12501 4.70994Z" fill="#B50D0D"/>
</svg>
