<svg width="19" height="19" viewBox="0 0 19 19" fill="none" xmlns="http://www.w3.org/2000/svg">
<path d="M16.1976 1.12179L16.1975 1.12178C15.7699 1.05048 15.342 1.1494 14.9862 1.40105L14.9856 1.4015C14.6346 1.65387 14.4047 2.02686 14.3281 2.45299L14.3279 2.45412L13.474 7.53712C13.474 7.53713 13.474 7.53715 13.474 7.53716C13.4726 7.54513 13.4712 7.54895 13.47 7.55153C13.4686 7.55432 13.4661 7.55874 13.46 7.5666L12.1662 9.01446C12.1661 9.01459 12.1659 9.01471 12.1658 9.01484C12.131 9.05262 12.0721 9.07966 11.9982 9.07966H6.39014C6.3591 9.07966 6.31254 9.07093 6.28422 9.04062L4.97979 7.56645C4.9755 7.5611 4.97249 7.55724 4.97008 7.55389C4.96885 7.55218 4.96796 7.55087 4.96734 7.5499V7.54542L4.96596 7.53719L4.11182 2.45415C4.11182 2.45414 4.11182 2.45413 4.11182 2.45411C3.96373 1.57085 3.1194 0.973854 2.23712 1.12179L2.23702 1.12181C1.35837 1.27004 0.77267 2.10951 0.914928 2.98573L0.914927 2.98573L0.915011 2.98624L1.86167 8.63463C1.86169 8.63477 1.86172 8.63491 1.86174 8.63505C1.90103 8.88168 2.0131 9.10448 2.17869 9.29206L2.17904 9.29246L5.2914 12.7804C5.29144 12.7804 5.29147 12.7805 5.29151 12.7805C5.34231 12.8382 5.34603 12.9009 5.33547 12.9507L5.33541 12.9507L5.33477 12.9543C5.10573 14.2707 5.17342 15.6437 5.52718 16.9338L5.52719 16.9339C5.68309 17.5016 6.20579 17.9027 6.79149 17.9027H10.6245C11.1926 17.9027 11.749 17.6595 12.1381 17.2432L12.1386 17.2427C12.5271 16.8219 12.7329 16.2547 12.6896 15.6808C12.6138 14.6254 12.8204 13.5645 13.2843 12.604C13.2865 12.6005 13.2886 12.5972 13.2905 12.594C13.2986 12.581 13.3055 12.5697 13.3236 12.5486L16.2333 9.29458C16.422 9.10504 16.5338 8.8756 16.573 8.62996C16.573 8.62977 16.573 8.62959 16.5731 8.62941L17.5247 2.98634L17.5247 2.98624C17.6727 2.10354 17.0807 1.26983 16.1976 1.12179ZM16.4376 2.80768L16.4374 2.80899L15.486 8.45543C15.4784 8.48821 15.4599 8.52975 15.4311 8.55863L15.431 8.55852L15.4273 8.56266L12.5254 11.8195L12.5251 11.8198C12.4441 11.9116 12.3713 12.0119 12.3196 12.1205C11.7721 13.252 11.5215 14.5093 11.6104 15.7567C11.629 16.0275 11.5357 16.2938 11.3536 16.495C11.1664 16.696 10.915 16.8074 10.64 16.8074H6.80696C6.71027 16.8074 6.62411 16.742 6.59442 16.6433C6.28458 15.5103 6.22379 14.301 6.42694 13.1431L6.42704 13.1425C6.49371 12.7479 6.38238 12.3523 6.12089 12.0519L6.1209 12.0519L6.12008 12.0509L3.00755 8.56281C3.00753 8.56279 3.00751 8.56277 3.00749 8.56275C2.97589 8.52711 2.95542 8.48705 2.94882 8.45214L1.99722 2.80421C1.9972 2.80414 1.99719 2.80406 1.99718 2.80398C1.94939 2.51159 2.13638 2.24603 2.4191 2.19875C2.71 2.15117 2.98219 2.34668 3.02967 2.63105L3.02968 2.63115L3.88348 7.71349C3.8835 7.71365 3.88353 7.7138 3.88355 7.71395C3.91617 7.91951 4.00535 8.10354 4.1395 8.26087V8.26573L4.16462 8.29411L5.47156 9.77068L5.47176 9.77091C5.70261 10.0301 6.03905 10.1748 6.39536 10.1748H12.0034C12.3798 10.1748 12.7423 10.0202 12.9838 9.74484C12.9838 9.74476 12.9839 9.74468 12.984 9.74459L14.2747 8.28941C14.2747 8.28932 14.2748 8.28924 14.2749 8.28915C14.4217 8.12554 14.5115 7.93363 14.5506 7.72118L14.5509 7.71966L15.4049 2.63739C15.4315 2.497 15.5053 2.37673 15.6212 2.29523L15.6212 2.29525L15.6227 2.29416C15.7335 2.21311 15.8708 2.18228 16.0108 2.20403C16.2959 2.2519 16.4893 2.52393 16.4376 2.80768Z" fill="#B50D0D" stroke="#B50D0D" stroke-width="0.2"/>
<path d="M15.1776 13.8143C15.1673 13.8143 15.1518 13.8143 15.1416 13.8091L15.0592 13.7936C15.0284 13.7886 15.0027 13.7781 14.977 13.7679L14.9048 13.7371L14.8277 13.7062C14.8072 13.701 14.7865 13.6907 14.766 13.6752L14.6116 13.5723C14.5911 13.5621 14.5756 13.5466 14.5602 13.5313L14.4932 13.4644C14.4882 13.4592 14.483 13.4542 14.4778 13.4489L14.4161 13.382C14.4058 13.3718 14.4006 13.3615 14.3903 13.346L14.3389 13.2689C14.3339 13.2586 14.3286 13.2534 14.3234 13.2431L14.2824 13.166C14.2772 13.1607 14.272 13.1505 14.2669 13.1402L14.231 13.0631C14.2257 13.0476 14.2205 13.0321 14.2155 13.0168L14.1948 12.9397C14.1948 12.9292 14.1948 12.919 14.1898 12.9087L14.1743 12.8315C14.1691 12.811 14.164 12.7853 14.1691 12.7596L14.1743 12.6824C14.1795 12.6669 14.1795 12.6462 14.1845 12.631L14.2 12.5691C14.2052 12.5486 14.2103 12.5281 14.2205 12.5074L14.2462 12.4457C14.2617 12.4147 14.2772 12.389 14.2977 12.3633L14.3389 12.3118C14.3441 12.3068 14.3491 12.3016 14.3596 12.2913L14.4006 12.2501C14.4161 12.2296 14.4418 12.2141 14.4675 12.1987L14.5292 12.1627C14.5549 12.1472 14.5807 12.137 14.6116 12.1267L14.6785 12.1112C14.694 12.106 14.7043 12.106 14.7197 12.101L14.7865 12.0907C14.8019 12.0855 14.8122 12.0855 14.8277 12.0855H14.9048C14.9306 12.0855 14.9513 12.0855 14.9718 12.0907L15.0542 12.106C15.0694 12.106 15.0799 12.1112 15.0952 12.1165L15.1723 12.1422C15.1828 12.1472 15.1981 12.1524 15.2135 12.1627L15.2959 12.2039C15.301 12.2089 15.3062 12.2089 15.3114 12.2141L15.3886 12.2553C15.4039 12.2656 15.4143 12.2758 15.4296 12.2861L15.5068 12.348C15.5172 12.3582 15.5275 12.3685 15.5377 12.3787L15.6046 12.4457C15.6097 12.4509 15.6149 12.4559 15.6201 12.4611L15.6818 12.5331C15.6868 12.5383 15.6921 12.5433 15.6973 12.5538L15.7487 12.6205C15.759 12.631 15.764 12.6412 15.7745 12.6567L15.8155 12.7339C15.8259 12.7441 15.8309 12.7544 15.8362 12.7698L15.8721 12.852C15.8721 12.8573 15.8774 12.8573 15.8774 12.8625L17.4104 12.1165C17.5648 12.0393 17.7346 12.0341 17.8992 12.0907C18.0588 12.1472 18.1874 12.2656 18.2593 12.4147L18.9282 13.7988C18.9282 13.8039 18.9334 13.8039 18.9334 13.8091C19.0053 13.9634 19.0158 14.128 18.9796 14.2721C18.9282 14.4367 18.815 14.5706 18.6607 14.6425L16.5205 15.6767C16.51 15.6818 16.4998 15.687 16.4895 15.6922C16.4843 15.6922 16.4843 15.6972 16.4793 15.6972C16.4741 15.7025 16.4638 15.7025 16.4536 15.7075L16.3866 15.7282C16.3712 15.7332 16.3557 15.7332 16.3404 15.7384L16.2632 15.7487C16.2528 15.7539 16.2425 15.7539 16.2271 15.7539H16.1499C16.1242 15.7539 16.1037 15.7487 16.0779 15.7437L16.0008 15.7282C15.9853 15.7282 15.975 15.723 15.9648 15.7179L15.8876 15.6922C15.8774 15.6922 15.8721 15.6922 15.8669 15.687L15.7847 15.651C15.764 15.6458 15.7435 15.6355 15.723 15.6201L15.6458 15.5686C15.6406 15.5636 15.6304 15.5584 15.6251 15.5531L15.548 15.4914C15.5429 15.4864 15.5377 15.4812 15.5325 15.476L15.4658 15.4143C15.4553 15.404 15.4451 15.3938 15.4348 15.3835L15.3731 15.3166C15.3679 15.3114 15.3629 15.3063 15.3576 15.3011L15.2959 15.2239C15.2857 15.2137 15.2752 15.1982 15.265 15.1827L15.2238 15.1056C15.2135 15.0953 15.2085 15.0851 15.2033 15.0696L15.1673 14.9872C15.1621 14.9719 15.1571 14.9565 15.1518 14.9358L15.1313 14.8586C15.1313 14.8483 15.1261 14.8329 15.1261 14.8226L15.1159 14.7454C15.1159 14.7249 15.1106 14.7042 15.1159 14.6837L15.1209 14.6168C15.1261 14.5963 15.1261 14.5808 15.1313 14.5654L15.1466 14.4934C15.1518 14.4727 15.1571 14.4574 15.1673 14.4367L15.193 14.3803C15.1981 14.3596 15.2085 14.3441 15.2238 14.3236L15.26 14.2721C15.2752 14.2567 15.2907 14.2362 15.3062 14.2207L15.3524 14.1745C15.3731 14.1538 15.3936 14.1383 15.4193 14.123L15.4708 14.0921C15.4863 14.0818 15.5068 14.0716 15.5275 14.0663L15.5839 14.0458C15.6046 14.0406 15.6251 14.0354 15.6458 14.0304L15.723 14.0201C15.7487 14.0149 15.7692 14.0149 15.795 14.0201L15.8721 14.0304C15.8824 14.0304 15.8979 14.0304 15.9081 14.0354L15.9853 14.0509C15.9955 14.0509 16.0008 14.0509 16.011 14.0561L16.0934 14.0818C16.1089 14.0868 16.1191 14.0921 16.1346 14.0973L16.2118 14.1333C16.2323 14.1383 16.2478 14.1487 16.2632 14.159L16.3404 14.2104C16.3454 14.2104 16.3507 14.2155 16.3557 14.2207L16.4278 14.2774C16.4329 14.2876 16.4381 14.2926 16.4483 14.2979L16.5205 14.3596C16.5307 14.3698 16.5358 14.375 16.5462 14.3853L16.6129 14.4574C16.6182 14.4625 16.6234 14.4727 16.6336 14.4832L16.6851 14.5551C16.6953 14.5654 16.7006 14.5756 16.7108 14.5911L16.752 14.6683C16.757 14.6735 16.7623 14.6837 16.7673 14.694L16.8035 14.7712C16.8085 14.7814 16.8085 14.7866 16.8137 14.7969L17.1584 14.6271L16.505 13.2791L15.6149 13.7114L15.5737 13.7371C15.548 13.7524 15.5222 13.7629 15.4915 13.7731L15.4246 13.7936C15.4091 13.7988 15.3988 13.7988 15.3834 13.8039L15.3164 13.8143C15.301 13.8193 15.2907 13.8193 15.2752 13.8193C15.2702 13.8193 15.265 13.8193 15.26 13.8193L15.1776 13.8143ZM18.3315 14.0766L17.6831 12.7234L17.1069 13.0014L17.7603 14.3493L18.3315 14.0766ZM16.2013 15.0901L16.1808 15.0491L16.1756 15.0234L16.1603 14.9872L16.1346 14.941L16.1037 14.8998L16.0574 14.8483L16.011 14.8071L15.9545 14.7661L15.9081 14.7352L15.8774 14.7197L15.8259 14.7042L15.7795 14.694L15.764 14.689V14.694L15.7692 14.7249L15.7795 14.7609L15.795 14.8021L15.8155 14.8381L15.8567 14.8895L15.8979 14.9358L15.9441 14.977L15.9955 15.0234L16.0367 15.0491L16.0832 15.0696L16.1346 15.0901L16.1603 15.0953H16.1861L16.2013 15.0901ZM15.2805 13.1557V13.1505L15.2752 13.135L15.265 13.099L15.2393 13.0426L15.2188 13.0014L15.1878 12.9602L15.1416 12.9035L15.0952 12.8573L15.0542 12.8263L15.0077 12.8006L14.9513 12.7698L14.9151 12.7596L14.8791 12.7491H14.8534L14.8379 12.7544L14.8431 12.7801L14.8534 12.8161L14.8741 12.8573L14.9048 12.9087L14.9358 12.9549L14.977 13.0014L15.013 13.0373L15.1106 13.1043L15.1621 13.1248C15.1621 13.1248 15.1673 13.1248 15.1723 13.13L15.2085 13.1455L15.229 13.1505L15.265 13.1557H15.2805Z" fill="#B50D0D"/>
<path d="M12.2319 5.52654C12.2319 3.86089 10.8802 2.50937 9.21473 2.50937C7.54909 2.50937 6.19736 3.86088 6.19736 5.52654C6.19736 7.1923 7.55423 8.5437 9.21473 8.5437C10.8802 8.5437 12.2319 7.19219 12.2319 5.52654ZM9.21473 3.60452C10.2759 3.60452 11.1365 4.46533 11.1365 5.52654C11.1365 6.58774 10.2759 7.44855 9.21473 7.44855C8.15334 7.44855 7.29271 6.58773 7.29271 5.52654C7.29271 4.46551 8.1584 3.60452 9.21473 3.60452Z" fill="#B50D0D" stroke="#B50D0D" stroke-width="0.2"/>
<path d="M0.802697 14.5862L0.879871 14.5655C0.879871 14.5655 0.884896 14.5605 0.890121 14.5605L0.344673 12.9448C0.236749 12.6156 0.411598 12.2555 0.740796 12.1423L2.19686 11.6483C2.53129 11.53 2.89666 11.705 3.00981 12.0394L3.30304 12.8986C3.30826 12.9088 3.31328 12.9191 3.31851 12.9346C3.32374 12.95 3.32374 12.9603 3.32876 12.9758L3.77131 14.2775C3.78156 14.3082 3.79181 14.3392 3.78156 14.3804L3.77633 14.4369C3.77633 14.4523 3.78156 14.4678 3.78156 14.4883V14.5552C3.78156 14.5757 3.78156 14.5964 3.77633 14.6169L3.76106 14.6941C3.76106 14.7096 3.75583 14.7251 3.75061 14.7405L3.72488 14.8177C3.72488 14.828 3.71986 14.8382 3.71463 14.8485L3.67866 14.9256C3.67343 14.9309 3.66841 14.9411 3.66318 14.9514L3.62198 15.0285C3.61173 15.044 3.60148 15.0543 3.59123 15.0697L3.52953 15.1469C3.52431 15.1572 3.51406 15.1674 3.50381 15.1779L3.43688 15.2446C3.43166 15.2498 3.42664 15.255 3.42141 15.2601L3.35448 15.3218C3.34423 15.3322 3.33399 15.3372 3.31851 15.3475L3.24134 15.3989C3.23109 15.4042 3.22084 15.4144 3.20536 15.4196L3.12296 15.4608C3.11794 15.4608 3.11271 15.4608 3.10749 15.4659L3.03031 15.5018C3.01504 15.5071 3.00459 15.5123 2.98931 15.5173L2.90691 15.543C2.89144 15.5483 2.87094 15.5483 2.85024 15.5533L2.77306 15.5637C2.76281 15.5688 2.75256 15.5688 2.73709 15.5688H2.65991C2.64444 15.5688 2.62394 15.5688 2.60846 15.5637L2.53651 15.5533C2.51581 15.5533 2.49531 15.5483 2.47481 15.538L2.41291 15.5123C2.39764 15.5071 2.37694 15.4968 2.36146 15.4866L2.29976 15.4504C2.27926 15.4401 2.25354 15.4196 2.23284 15.3989L2.19184 15.3579C2.17637 15.3425 2.16612 15.327 2.15064 15.3065L2.11467 15.255C2.09919 15.2343 2.08894 15.2138 2.07849 15.1881L2.05277 15.1264C2.04774 15.1057 2.04252 15.0902 2.03749 15.0697L2.02202 15.0028C2.02202 14.9823 2.01679 14.9668 2.01679 14.9463V14.8794C2.01679 14.8587 2.01679 14.8434 2.02202 14.828L2.03227 14.7508C2.03749 14.7353 2.04252 14.7148 2.04774 14.6941L2.07347 14.6169C2.07347 14.6067 2.07849 14.5964 2.08372 14.5862L2.11969 14.509C2.12492 14.5038 2.12994 14.4935 2.13517 14.4833L2.18139 14.4009C2.19184 14.3854 2.20209 14.3699 2.21234 14.3547L2.26902 14.2825C2.27404 14.2723 2.28429 14.262 2.29474 14.2518L2.36146 14.1848C2.37191 14.1796 2.38216 14.1694 2.39241 14.1591L2.46959 14.0974C2.47481 14.0922 2.47984 14.087 2.49009 14.0819L2.56726 14.0305C2.57771 14.0253 2.58274 14.0202 2.59299 14.015L2.67016 13.9738C2.68061 13.9636 2.69086 13.9583 2.70634 13.9533L2.78854 13.9173C2.79376 13.9121 2.80401 13.9121 2.80924 13.9069L2.88641 13.8812C2.90169 13.8761 2.91214 13.8761 2.92741 13.8709L2.78351 13.4491L1.37367 13.9326L1.72357 14.9616C1.72879 14.9873 1.73382 15.0131 1.73904 15.0388L1.74929 15.0902C1.75452 15.1109 1.75452 15.1314 1.75452 15.1521V15.2396C1.75452 15.255 1.75452 15.2653 1.74929 15.2808L1.73904 15.3579C1.73382 15.3732 1.72879 15.3939 1.72357 15.4144L1.69784 15.4916C1.69784 15.5018 1.69262 15.5123 1.68759 15.5225L1.65162 15.5997C1.64639 15.6202 1.63614 15.6357 1.62589 15.6512L1.57444 15.7283C1.57444 15.7334 1.56922 15.7386 1.56399 15.7438L1.51254 15.8105C1.50229 15.821 1.49204 15.8363 1.48179 15.8467L1.41487 15.9134C1.40964 15.9187 1.40462 15.9239 1.39939 15.9289L1.33247 15.9906C1.32222 16.0011 1.31197 16.0061 1.29649 16.0163L1.21932 16.0678C1.20907 16.073 1.19882 16.0833 1.18334 16.0885L1.10094 16.1297C1.09069 16.1297 1.08567 16.1347 1.07522 16.1399L0.993021 16.1759C0.987795 16.1811 0.977546 16.1811 0.97232 16.1862L0.895146 16.2119C0.879871 16.2171 0.869421 16.2171 0.854147 16.2221L0.771747 16.2376C0.751247 16.2376 0.730547 16.2428 0.710047 16.2428H0.632872C0.617397 16.2428 0.596898 16.2428 0.576197 16.2376L0.504248 16.2221C0.493998 16.2221 0.478523 16.2171 0.463048 16.2119L0.396123 16.1914C0.365374 16.1811 0.339649 16.1657 0.313924 16.1502L0.262474 16.1142C0.236749 16.0987 0.211024 16.0782 0.190324 16.0525L0.149124 16.0011C0.138874 15.9906 0.13385 15.9753 0.123399 15.9649L0.0874244 15.9084C0.0771746 15.8929 0.0669249 15.8724 0.0566751 15.8467L0.0359747 15.79C0.0359747 15.7798 0.0309502 15.7695 0.0257249 15.7541L0.0102498 15.6871C0.00522534 15.6614 0 15.6357 0 15.61V15.543C0 15.5276 0 15.5071 0.00522534 15.4916L0.0204995 15.4144C0.0257249 15.3989 0.0309502 15.3837 0.0359747 15.363L0.0616995 15.2858C0.0669249 15.2703 0.0719493 15.255 0.0824 15.2396L0.118375 15.1674C0.118375 15.1624 0.123399 15.1521 0.128624 15.1469L0.174849 15.0697C0.1853 15.0543 0.190324 15.044 0.200574 15.0338L0.257249 14.9616C0.262474 14.9616 0.262474 14.9566 0.267499 14.9514L0.324174 14.8844C0.334423 14.8742 0.344673 14.8587 0.360148 14.8485L0.432098 14.7868C0.437323 14.7765 0.452798 14.7713 0.463048 14.761L0.540223 14.7096C0.550472 14.7044 0.560722 14.6941 0.576197 14.6891L0.658597 14.6479C0.668847 14.6479 0.674072 14.6427 0.684322 14.6376L0.766521 14.6015C0.776972 14.5964 0.787222 14.5912 0.802697 14.5862ZM3.14366 14.55L3.13844 14.5193H3.10246L3.07151 14.5243L3.03554 14.5347L2.97886 14.5605L2.93264 14.5862L2.87596 14.6222L2.82451 14.6634L2.78351 14.7044L2.75779 14.7405L2.73206 14.7868L2.71136 14.833L2.70111 14.8692L2.69589 14.8949V14.9154H2.73709L2.76804 14.9102L2.80401 14.8999L2.85546 14.8742L2.91716 14.8434L2.95836 14.8125L3.00459 14.7713L3.05101 14.7251L3.08176 14.6839L3.10749 14.6427L3.12819 14.5912L3.14366 14.55ZM2.58796 12.8317L2.39764 12.2657L0.987795 12.7493L1.17812 13.3152L2.58796 12.8317ZM1.10617 15.2343V15.2086L1.10094 15.1984H1.07522L1.03422 15.2086L0.993021 15.2189L0.936346 15.2396L0.879871 15.2653L0.838671 15.296L0.802697 15.327L0.766521 15.3732L0.725522 15.4247L0.694572 15.4761L0.674072 15.5173L0.663622 15.5483L0.658597 15.579L0.663622 15.5895H0.684322L0.720297 15.579L0.766521 15.5637L0.828422 15.538L0.884896 15.5123L0.926096 15.4813L0.97232 15.4401L1.01875 15.3939L1.04949 15.3527L1.08045 15.3065L1.09592 15.2703L1.10617 15.2343Z" fill="#B50D0D"/>
</svg>
