<svg width="12" height="19" viewBox="0 0 12 19" fill="none" xmlns="http://www.w3.org/2000/svg">
<path fill-rule="evenodd" clip-rule="evenodd" d="M2.29725 1.11704C2.44623 0.912205 2.68422 0.791016 2.9375 0.791016H9.27083C9.52412 0.791016 9.76211 0.912208 9.91108 1.11705C9.26451 1.58728 9.23148 1.61131 9.91108 1.11705L9.91299 1.11968L9.91594 1.12377L9.92488 1.1363C9.93215 1.14657 9.94204 1.16065 9.95429 1.17841C9.97879 1.21393 10.0128 1.26421 10.0543 1.32818C10.1374 1.45603 10.251 1.63921 10.3796 1.8691C10.6359 2.32727 10.9564 2.97953 11.2106 3.75555C11.4568 4.50672 11.6458 5.38904 11.6458 6.33268C11.6458 7.10895 11.4804 7.85387 11.1832 8.53075C10.4319 10.2424 8.8286 11.5359 6.89583 11.8172V16.6244H10.0625C10.4997 16.6244 10.8542 16.9788 10.8542 17.416C10.8542 17.8532 10.4997 18.2077 10.0625 18.2077H2.14583C1.70861 18.2077 1.35417 17.8532 1.35417 17.416C1.35417 16.9788 1.70861 16.6244 2.14583 16.6244H5.3125V11.8182C3.46383 11.5538 1.91052 10.3769 1.12171 8.76113C0.763312 8.0269 0.5625 7.20208 0.5625 6.33268C0.5625 5.27774 0.798803 4.29869 1.08793 3.49251C1.34001 2.7897 1.63768 2.20317 1.87244 1.79166C1.99018 1.58527 2.09308 1.4212 2.16803 1.30666C2.20553 1.24935 2.23612 1.2043 2.25818 1.17243C2.26921 1.15649 2.27811 1.14383 2.28469 1.13457L2.29279 1.12322L2.29549 1.11948L2.29649 1.1181L2.29725 1.11704ZM3.36654 2.37435C3.33013 2.43428 3.29021 2.50175 3.24772 2.57623C3.04681 2.92841 2.79229 3.43044 2.57832 4.02702M3.36654 2.37435H8.84179C8.88865 2.45149 8.94132 2.54111 8.9978 2.64208C9.21801 3.03574 9.49129 3.59317 9.70602 4.24854C9.86173 4.72376 9.98386 5.24205 10.0356 5.78081C9.78497 5.85617 9.46111 5.93866 9.09788 5.99602C8.23088 6.13291 7.26674 6.10699 6.51148 5.65383C5.28757 4.91949 3.87671 4.94541 2.86351 5.10539C2.64538 5.13983 2.43976 5.18141 2.25099 5.22561C2.32902 4.80309 2.44473 4.39951 2.57832 4.02702M2.54454 8.0665C2.36567 7.70004 2.24163 7.30163 2.18346 6.88134ZM2.18346 6.88134C2.43256 6.80686 2.75238 6.72589 3.11045 6.66935C3.97745 6.53245 4.94159 6.55837 5.69686 7.01153C6.92076 7.74587 8.33162 7.71995 9.34482 7.55997C9.53963 7.52921 9.72447 7.49276 9.89624 7.45384C9.85068 7.60424 9.79623 7.75128 9.73344 7.89432C9.11861 9.29507 7.71823 10.291 6.10417 10.291C4.54126 10.291 3.18838 9.38526 2.54454 8.0665" fill="#B50D0D"/>
</svg>
