<svg width="19" height="19" viewBox="0 0 19 19" fill="none" xmlns="http://www.w3.org/2000/svg">
<g clip-path="url(#clip0_738_7382)">
<path d="M2.32006 6.96469L0.0934964 10.3045C-0.00283956 10.449 -0.0262185 10.6302 0.0302991 10.7944C0.0868167 10.9586 0.216662 11.087 0.381502 11.1416L2.22658 11.7533V16.2168C2.22658 16.4567 2.38032 16.6697 2.60806 16.7452L9.32486 18.9717C9.37173 18.9876 9.44009 19 9.50002 19C9.55865 19 9.62782 18.9878 9.67517 18.9717L16.392 16.7452C16.6197 16.6697 16.7735 16.4567 16.7735 16.2168V11.7533L18.6185 11.1417C18.7833 11.087 18.9133 10.9586 18.9697 10.7944C19.0262 10.6302 19.0029 10.449 18.9065 10.3046L16.68 6.96472C16.6133 6.86434 16.5116 6.78467 16.3917 6.74504L12.202 5.35874L13.2335 4.32725C13.3927 4.16805 13.4403 3.92862 13.3542 3.72062C13.268 3.51259 13.065 3.37695 12.8399 3.37695H11.1699V0.556641C11.1699 0.249227 10.9207 0 10.6133 0H8.38674C8.07932 0 7.8301 0.249227 7.8301 0.556641V3.37695H6.16017C5.93503 3.37695 5.73204 3.51259 5.64591 3.72059C5.55978 3.92858 5.60739 4.16801 5.76659 4.32721L6.79808 5.35871L2.60836 6.74496C2.49518 6.78252 2.38964 6.86034 2.32006 6.96469ZM3.01096 7.93536L8.63192 9.79866L7.04575 12.1779L1.4248 10.3146L3.01096 7.93536ZM3.33986 12.1223L7.0983 13.3682C7.33624 13.4471 7.59757 13.3572 7.73662 13.1486L8.94338 11.3385V17.6724L3.33986 15.8149V12.1223ZM15.6602 15.8149L10.0567 17.6724V11.3385L11.2635 13.1486C11.4035 13.3587 11.6654 13.4466 11.9017 13.3682L15.6602 12.1223V15.8149ZM11.9543 12.1779L10.3682 9.79866L15.9891 7.93536L17.5753 10.3146L11.9543 12.1779ZM8.38674 4.49023C8.69415 4.49023 8.94338 4.24101 8.94338 3.93359V1.11328H10.0567V3.93359C10.0567 4.24101 10.3059 4.49023 10.6133 4.49023H11.496L9.50002 6.48624L7.50405 4.49023H8.38674ZM9.10644 7.66702C9.21513 7.77575 9.35756 7.83008 9.50002 7.83008C9.64248 7.83008 9.78494 7.77575 9.8936 7.66702L11.3209 6.23976L14.4463 7.27392L9.50002 8.91356L4.55375 7.27392L7.67917 6.23976L9.10644 7.66702Z" fill="#B50D0D"/>
</g>
<defs>
<clipPath id="clip0_738_7382">
<rect width="19" height="19" fill="white"/>
</clipPath>
</defs>
</svg>
