<svg width="19" height="19" viewBox="0 0 19 19" fill="none" xmlns="http://www.w3.org/2000/svg">
<g clip-path="url(#clip0_738_7459)">
<path d="M17.86 8.36031V7.60031C17.86 6.97075 17.3496 6.46031 16.72 6.46031H15.96C15.96 5.83075 15.4496 5.32031 14.82 5.32031H14.06C13.4304 5.32031 12.92 5.83075 12.92 6.46031V8.36031H6.08V6.46031C6.08 5.83075 5.56956 5.32031 4.94 5.32031H4.18C3.55044 5.32031 3.04 5.83075 3.04 6.46031H2.28C1.65044 6.46031 1.14 6.97075 1.14 7.60031V8.36031C0.510439 8.36031 0 8.87075 0 9.50031C0 10.1299 0.510439 10.6403 1.14 10.6403V11.4003C1.14 12.0299 1.65044 12.5403 2.28 12.5403H3.04C3.04 13.1699 3.55044 13.6803 4.18 13.6803H4.94C5.56956 13.6803 6.08 13.1699 6.08 12.5403V10.6403H12.92V12.5403C12.92 13.1699 13.4304 13.6803 14.06 13.6803H14.82C15.4496 13.6803 15.96 13.1699 15.96 12.5403H16.72C17.3496 12.5403 17.86 12.0299 17.86 11.4003V10.6403C18.4896 10.6403 19 10.1299 19 9.50031C19 8.87075 18.4896 8.36031 17.86 8.36031ZM17.86 9.88031V9.12031C18.0699 9.12031 18.24 9.29046 18.24 9.50031C18.24 9.71017 18.0699 9.88031 17.86 9.88031ZM16.72 11.7803H15.96V7.22031H16.72C16.9299 7.22031 17.1 7.39046 17.1 7.60031V11.4003C17.1 11.6102 16.9299 11.7803 16.72 11.7803ZM14.82 12.9203H14.06C13.8501 12.9203 13.68 12.7502 13.68 12.5403V6.46031C13.68 6.25046 13.8501 6.08031 14.06 6.08031H14.82C15.0299 6.08031 15.2 6.25046 15.2 6.46031V12.5403C15.2 12.7502 15.0299 12.9203 14.82 12.9203ZM4.94 12.9203H4.18C3.97015 12.9203 3.8 12.7502 3.8 12.5403V6.46031C3.8 6.25046 3.97015 6.08031 4.18 6.08031H4.94C5.14985 6.08031 5.32 6.25046 5.32 6.46031V12.5403C5.32 12.7502 5.14985 12.9203 4.94 12.9203ZM1.9 11.4003V7.60031C1.9 7.39046 2.07015 7.22031 2.28 7.22031H3.04V11.7803H2.28C2.07015 11.7803 1.9 11.6102 1.9 11.4003ZM0.76 9.50031C0.76 9.29046 0.930147 9.12031 1.14 9.12031V9.88031C0.930147 9.88031 0.76 9.71017 0.76 9.50031ZM6.08 9.12031H12.92V9.88031H6.08V9.12031Z" fill="#B50D0D"/>
</g>
<defs>
<clipPath id="clip0_738_7459">
<rect width="19" height="19" fill="white"/>
</clipPath>
</defs>
</svg>
