<svg width="19" height="19" viewBox="0 0 19 19" fill="none" xmlns="http://www.w3.org/2000/svg">
<path fill-rule="evenodd" clip-rule="evenodd" d="M0.791504 9.49935C0.791504 4.68987 4.69036 0.791016 9.49984 0.791016C14.3093 0.791016 18.2082 4.68987 18.2082 9.49935C18.2082 9.70931 18.1248 9.91068 17.9763 10.0591L10.0596 17.9758C9.75047 18.285 9.24921 18.285 8.94005 17.9758L1.02338 10.0591C0.874911 9.91068 0.791504 9.70931 0.791504 9.49935ZM2.58464 7.77611C2.60982 7.76123 2.63487 7.74668 2.65978 7.73244C3.12328 7.46758 3.61756 7.26829 4.10211 7.26829C4.58666 7.26829 5.08094 7.46758 5.54445 7.73244C5.87026 7.91862 6.22029 8.16039 6.5932 8.45224C7.49312 7.70244 8.46366 7.26829 9.49984 7.26829C10.536 7.26829 11.5066 7.70244 12.4065 8.45224C12.7794 8.16039 13.1294 7.91862 13.4552 7.73244C13.9187 7.46758 14.413 7.26829 14.8976 7.26829C15.3821 7.26829 15.8764 7.46758 16.3399 7.73244C16.3648 7.74668 16.3899 7.76124 16.415 7.77612C15.6445 4.67366 12.8407 2.37435 9.49984 2.37435C6.15902 2.37435 3.35523 4.67366 2.58464 7.77611ZM16.2341 9.56216C15.9802 9.37183 15.7538 9.22116 15.5543 9.10716C15.1782 8.89223 14.9728 8.85162 14.8976 8.85162C14.8224 8.85162 14.6169 8.89223 14.2408 9.10716C13.9162 9.29264 13.5206 9.57517 13.0507 9.96765L11.4633 14.3329L16.2341 9.56216ZM9.49984 15.0995L11.4555 9.72129C10.7302 9.09823 10.0802 8.85162 9.49984 8.85162C8.91952 8.85162 8.26945 9.09823 7.54414 9.72129L9.49984 15.0995ZM5.94896 9.96765C5.4791 9.57517 5.08347 9.29264 4.75889 9.10716C4.38275 8.89223 4.17733 8.85162 4.10211 8.85162C4.0269 8.85162 3.82147 8.89223 3.44533 9.10716C3.24583 9.22116 3.01949 9.37183 2.76556 9.56216L7.53633 14.3329L5.94896 9.96765Z" fill="#B50D0D"/>
</svg>
