<svg width="19" height="19" viewBox="0 0 19 19" fill="none" xmlns="http://www.w3.org/2000/svg">
<g filter="url(#filter0_d_738_7432)">
<path d="M14.5098 14.8376V10.6133C14.5098 10.5452 14.4973 10.4777 14.4729 10.4141L12.1717 4.40908C11.9252 3.76953 11.2989 3.33984 10.6133 3.33984C10.1859 3.33984 9.79571 3.50142 9.50002 3.76642C9.20433 3.50142 8.81413 3.33984 8.38674 3.33984C7.70118 3.33984 7.07485 3.76953 6.82785 4.41015L4.5271 10.4141C4.50276 10.4777 4.49026 10.5452 4.49026 10.6133V14.8376L1.31128 18.0519C1.15334 18.2116 1.10685 18.4506 1.19338 18.6578C1.27989 18.865 1.48247 19 1.70705 19H7.27346C7.45184 19 7.61936 18.9145 7.72408 18.7701C8.50597 17.692 9.10477 16.4806 9.50002 15.2027C9.89527 16.4806 10.4941 17.692 11.276 18.7701C11.3807 18.9145 11.5482 19 11.7266 19H17.293C17.5176 19 17.7202 18.865 17.8067 18.6578C17.8932 18.4506 17.8467 18.2116 17.6888 18.0519L14.5098 14.8376ZM6.98497 17.8867H3.04047L5.44267 15.4578C5.54572 15.3536 5.60354 15.213 5.60354 15.0664V10.7163L7.86702 4.80963C7.94922 4.59637 8.15811 4.45312 8.38674 4.45312C8.69367 4.45312 8.94338 4.70283 8.94338 5.00977V9.03873C8.76923 8.97698 8.58182 8.94336 8.38674 8.94336C7.46594 8.94336 6.71682 9.69249 6.71682 10.6133V13.3965C6.71682 13.7039 6.96604 13.9531 7.27346 13.9531C7.58087 13.9531 7.8301 13.7039 7.8301 13.3965V10.6133C7.8301 10.3063 8.07981 10.0566 8.38674 10.0566C8.69367 10.0566 8.94338 10.3063 8.94338 10.6133V11.5434C8.94338 13.8019 8.24981 16.043 6.98497 17.8867ZM12.0151 17.8867C10.7502 16.043 10.0567 13.8019 10.0567 11.5434V10.6133C10.0567 10.3063 10.3064 10.0566 10.6133 10.0566C10.9202 10.0566 11.1699 10.3063 11.1699 10.6133V13.3965C11.1699 13.7039 11.4192 13.9531 11.7266 13.9531C12.034 13.9531 12.2832 13.7039 12.2832 13.3965V10.6133C12.2832 9.69249 11.5341 8.94336 10.6133 8.94336C10.4181 8.94336 10.2309 8.97731 10.0567 9.0391V5.00977C10.0567 4.70283 10.3064 4.45312 10.6133 4.45312C10.8419 4.45312 11.0508 4.59637 11.1326 4.80856L13.3965 10.7163V15.0664C13.3965 15.213 13.4543 15.3536 13.5574 15.4578L15.9596 17.8867H12.0151Z" fill="#B50D0D"/>
<path d="M10.0566 1.66992V0.556641C10.0566 0.249227 9.80741 0 9.5 0C9.19259 0 8.94336 0.249227 8.94336 0.556641V1.66992C8.94336 1.97734 9.19259 2.22656 9.5 2.22656C9.80741 2.22656 10.0566 1.97737 10.0566 1.66992Z" fill="#B50D0D"/>
<path d="M2.82031 6.7168C2.5129 6.7168 2.26367 6.96602 2.26367 7.27344C2.26367 7.58085 2.5129 7.83008 2.82031 7.83008H3.93359C4.24101 7.83008 4.49023 7.58085 4.49023 7.27344C4.49023 6.96602 4.24101 6.7168 3.93359 6.7168H2.82031Z" fill="#B50D0D"/>
<path d="M15.0664 7.83008H16.1797C16.4871 7.83008 16.7363 7.58085 16.7363 7.27344C16.7363 6.96602 16.4871 6.7168 16.1797 6.7168H15.0664C14.759 6.7168 14.5098 6.96602 14.5098 7.27344C14.5098 7.58085 14.759 7.83008 15.0664 7.83008Z" fill="#B50D0D"/>
<path d="M5.17239 3.6964C5.38974 3.91379 5.7422 3.91383 5.95959 3.6964C6.17697 3.47902 6.17697 3.12659 5.95959 2.9092L5.17046 2.12007C4.95311 1.90268 4.60064 1.90268 4.38325 2.12007C4.16587 2.33746 4.16587 2.68989 4.38325 2.90727L5.17239 3.6964Z" fill="#B50D0D"/>
<path d="M13.8296 2.12007L13.0405 2.9092C12.8231 3.12659 12.8231 3.47902 13.0405 3.6964C13.2578 3.91375 13.6103 3.91379 13.8277 3.6964L14.6168 2.90727C14.8342 2.68989 14.8342 2.33746 14.6168 2.12007C14.3994 1.90268 14.047 1.90268 13.8296 2.12007Z" fill="#B50D0D"/>
</g>
<defs>
<filter id="filter0_d_738_7432" x="-2.84961" y="0" width="24.6992" height="27" filterUnits="userSpaceOnUse" color-interpolation-filters="sRGB">
<feFlood flood-opacity="0" result="BackgroundImageFix"/>
<feColorMatrix in="SourceAlpha" type="matrix" values="0 0 0 0 0 0 0 0 0 0 0 0 0 0 0 0 0 0 127 0" result="hardAlpha"/>
<feOffset dy="4"/>
<feGaussianBlur stdDeviation="2"/>
<feComposite in2="hardAlpha" operator="out"/>
<feColorMatrix type="matrix" values="0 0 0 0 0 0 0 0 0 0 0 0 0 0 0 0 0 0 0.25 0"/>
<feBlend mode="normal" in2="BackgroundImageFix" result="effect1_dropShadow_738_7432"/>
<feBlend mode="normal" in="SourceGraphic" in2="effect1_dropShadow_738_7432" result="shape"/>
</filter>
</defs>
</svg>
