<svg width="19" height="19" viewBox="0 0 19 19" fill="none" xmlns="http://www.w3.org/2000/svg">
<path d="M9.4999 7.1431C8.64208 5.59024 7.29435 4.5723 5.55592 4.5723C2.94389 4.5723 1.05518 6.74464 1.05518 9.4103C1.05518 12.6258 4.2561 15.0418 7.08395 17.4152C7.52754 17.7875 7.98627 18.1725 8.46241 18.5775C9.12698 19.1428 10.1242 19.1396 10.782 18.57C15.6983 14.3138 17.9446 12.3956 17.9446 9.41026C17.9446 6.74609 16.0572 4.57227 13.4439 4.57227C11.7049 4.57234 10.3574 5.59087 9.4999 7.1431ZM9.4999 8.94392C10.1138 8.94392 10.6133 9.44341 10.6133 10.0574C10.6133 10.6713 10.1138 11.1708 9.4999 11.1708C8.88596 11.1708 8.38648 10.6713 8.38648 10.0574C8.38648 9.44341 8.88596 8.94392 9.4999 8.94392ZM10.0532 17.7282C9.80725 17.9412 9.43347 17.9418 9.18384 17.7295C8.70492 17.322 7.31309 16.1539 7.07916 15.9566C7.21233 15.8832 7.33737 15.7908 7.44945 15.6786C7.77394 15.3542 7.95094 14.9038 7.93505 14.4429C7.9273 14.2176 7.87352 13.9979 7.78058 13.7964C8.31221 13.5344 8.89721 13.3976 9.4999 13.3976C10.128 13.3976 10.7349 13.5458 11.283 13.8288C10.9853 14.4525 11.0869 15.2153 11.6037 15.7321C11.7256 15.8539 11.862 15.9523 12.0071 16.0286C11.416 16.5485 10.7659 17.1113 10.0532 17.7282ZM13.4439 5.68577C15.375 5.68577 16.8312 7.28699 16.8312 9.41034C16.8312 11.2355 15.7297 12.6545 13.1864 14.9751C13.1121 14.9981 12.7283 15.2819 12.3911 14.9448C12.1658 14.7195 12.1812 14.3471 12.4172 14.1325C14.6535 12.1002 15.7178 10.8721 15.7178 9.38929H14.6044C14.6044 10.2822 13.97 11.18 12.0346 12.9726C11.2683 12.5214 10.4009 12.2842 9.4999 12.2842C8.62364 12.2842 7.77643 12.5097 7.02423 12.9384C5.39206 11.4901 4.39539 10.375 4.39539 9.38929H3.28196C3.28196 10.8693 4.50885 12.2271 6.62804 14.0725C6.87318 14.2859 6.88969 14.6638 6.66214 14.8913C6.31427 15.2391 5.85617 14.9131 5.85988 14.913C3.58088 12.9185 2.1686 11.3363 2.1686 9.41034C2.1686 7.28699 3.62482 5.68577 5.55592 5.68577C7.30804 5.68577 8.2522 7.0698 8.68487 7.98567C7.85908 8.31168 7.27305 9.11714 7.27305 10.0574C7.27305 11.2853 8.27202 12.2842 9.4999 12.2842C10.7278 12.2842 11.7268 11.2853 11.7268 10.0574C11.7268 9.11714 11.1407 8.31172 10.3149 7.98567C10.7476 7.06976 11.6918 5.68577 13.4439 5.68577Z" fill="#B50D0D"/>
<path d="M4.48955 0C3.89376 0 3.33244 0.240352 2.90904 0.676779C2.49225 1.10638 2.2627 1.67003 2.2627 2.26397C2.2627 3.49186 3.26166 4.49083 4.48955 4.49083C5.71744 4.49083 6.71641 3.49186 6.71641 2.26397C6.71641 1.67003 6.48686 1.10638 6.07007 0.676779C5.64667 0.240352 5.08535 0 4.48955 0ZM4.48955 3.3774C3.87561 3.3774 3.37612 2.87792 3.37612 2.26397C3.37612 1.6403 3.886 1.11343 4.48955 1.11343C5.09311 1.11343 5.60298 1.6403 5.60298 2.26397C5.60298 2.87792 5.1035 3.3774 4.48955 3.3774Z" fill="#B50D0D"/>
<path d="M16.7374 2.26397C16.7374 1.67003 16.5079 1.10638 16.0911 0.676779C15.6677 0.240352 15.1063 0 14.5105 0C13.9148 0 13.3534 0.240352 12.93 0.676779C12.5132 1.10638 12.2837 1.67003 12.2837 2.26397C12.2837 3.49186 13.2827 4.49083 14.5105 4.49083C15.7384 4.49083 16.7374 3.49186 16.7374 2.26397ZM13.3971 2.26397C13.3971 1.6403 13.907 1.11343 14.5105 1.11343C15.1141 1.11343 15.624 1.6403 15.624 2.26397C15.624 2.87792 15.1245 3.3774 14.5105 3.3774C13.8966 3.3774 13.3971 2.87792 13.3971 2.26397Z" fill="#B50D0D"/>
</svg>
