<svg width="19" height="15" viewBox="0 0 19 15" fill="none" xmlns="http://www.w3.org/2000/svg">
<path d="M18.0025 10.8337L10.0566 6.22914V5.88655C10.0566 5.49586 10.2796 5.13245 10.6385 4.93814C11.4472 4.50044 11.9278 3.65735 11.8929 2.73793C11.8457 1.4951 10.8353 0.484537 9.59277 0.437371C8.93527 0.412136 8.31261 0.649488 7.83947 1.10493C7.36603 1.56071 7.10529 2.17361 7.10529 2.83067C7.10529 3.13808 7.35452 3.38731 7.66194 3.38731C7.96935 3.38731 8.21858 3.13808 8.21858 2.83067C8.21858 2.47894 8.35814 2.15093 8.61156 1.90694C8.86469 1.66328 9.19774 1.5361 9.55051 1.54984C10.2149 1.57507 10.7552 2.11549 10.7805 2.78016C10.7992 3.27286 10.5417 3.72459 10.1086 3.95909C9.38986 4.34814 8.94336 5.08669 8.94336 5.88655V6.22914L0.997537 10.8337C0.382227 11.1903 0 11.8537 0 12.5649C0 13.6681 0.897379 14.5656 2.00042 14.5656H16.9996C18.1026 14.5656 19 13.6681 19 12.5649C19 11.8536 18.6178 11.1903 18.0025 10.8337ZM16.9996 13.4523H2.00042C1.51124 13.4523 1.11328 13.0542 1.11328 12.5649C1.11328 12.2494 1.2828 11.9551 1.55574 11.797L9.5 7.19332L17.4443 11.797C17.7172 11.9552 17.8867 12.2494 17.8867 12.5649C17.8867 13.0542 17.4888 13.4523 16.9996 13.4523Z" fill="#B50D0D"/>
</svg>
