<svg width="19" height="19" viewBox="0 0 19 19" fill="none" xmlns="http://www.w3.org/2000/svg">
<g clip-path="url(#clip0_738_7300)">
<path d="M11.8752 12.0333H13.7752V13.9333C13.7752 15.6794 12.3546 17.1 10.6085 17.1C8.86243 17.1 7.44186 15.6794 7.44186 13.9333V6.18811C8.72658 5.78461 9.65853 4.58464 9.65853 3.16667C9.65853 1.41772 8.24075 0 6.49186 0C4.74298 0 3.3252 1.41772 3.3252 3.16667C3.3252 4.58464 4.25715 5.78461 5.54186 6.18811V13.9333C5.54186 16.7316 7.81027 19 10.6085 19C13.4068 19 15.6752 16.7316 15.6752 13.9333V6.33333L11.8752 12.0333ZM6.49186 4.43333C5.79235 4.43333 5.2252 3.86625 5.2252 3.16667C5.2252 2.46709 5.79235 1.9 6.49186 1.9C7.19138 1.9 7.75853 2.46709 7.75853 3.16667C7.75853 3.86625 7.19138 4.43333 6.49186 4.43333Z" fill="#B50D0D"/>
</g>
<defs>
<clipPath id="clip0_738_7300">
<rect width="19" height="19" fill="white"/>
</clipPath>
</defs>
</svg>
