<svg width="19" height="19" viewBox="0 0 19 19" fill="none" xmlns="http://www.w3.org/2000/svg">
<path d="M18.106 6.97902C17.4545 6.32789 16.395 6.32789 15.7435 6.97902L13.1394 9.58315C11.9719 9.24905 10.6611 9.54121 9.74345 10.4589L8.0154 12.1869V8.71041H8.63423C10.4796 8.71041 11.9808 7.20918 11.9808 5.36382V3.63132C10.4746 3.66228 9.23116 3.39306 8.0154 4.48699C8.0154 4.38958 8.0154 3.24097 8.0154 3.18585H8.01132C7.92742 1.41474 6.46034 0 4.66881 0H2.93631V1.7325C2.93631 3.57786 4.43754 5.07909 6.2829 5.07909H6.90173V12.5808C5.51446 12.7805 4.33211 13.7167 3.82391 15.0279C1.99637 14.9005 0.397396 16.3374 0.405303 18.1833C0.405303 18.1833 0.405303 19 0.405303 19H14.5118C14.5324 17.8863 14.5316 17.086 13.7916 16.1761L14.6262 15.3416C15.5438 14.4235 15.836 13.1131 15.5019 11.9456L18.106 9.34149C18.7575 8.68999 18.7575 7.63051 18.106 6.97902V6.97902ZM10.2483 4.74499H10.8671V5.36382C10.8671 6.5948 9.86521 7.59673 8.63423 7.59673H8.0154V6.9779C8.0154 5.74655 9.01696 4.74499 10.2483 4.74499V4.74499ZM6.2829 3.96542C5.05192 3.96542 4.04998 2.96385 4.04998 1.7325V1.11367H4.66881C5.90016 1.11367 6.90173 2.11561 6.90173 3.34659V3.96542H6.2829ZM13.6576 10.64L14.0025 10.2948L14.7902 11.0825L14.445 11.4274C14.2241 11.4565 13.7623 11.5167 13.5392 11.5458L13.6576 10.64ZM17.3187 8.55412L15.578 10.2948L14.7902 9.50705L16.5309 7.76638C16.7481 7.54959 17.1015 7.54959 17.3187 7.76638C17.5358 7.98355 17.5358 8.33695 17.3187 8.55412V8.55412ZM1.54051 17.8863C1.68491 16.9007 2.53576 16.1416 3.56071 16.1416H4.65693L4.76607 15.7269C5.08793 14.5067 6.19529 13.6544 7.45856 13.6544C8.72184 13.6544 9.8292 14.5067 10.1511 15.7269L10.2602 16.1416H11.3564C12.3433 16.1223 13.2522 16.9117 13.377 17.8863H1.54051ZM13.8384 14.5538L12.9397 15.4526C12.4638 15.1753 11.9214 15.0279 11.3564 15.0279H11.0932C10.7031 14.0211 9.9157 13.2356 8.94309 12.8347L10.5312 11.2466C11.0776 10.6998 11.8297 10.4808 12.541 10.5895L12.2477 12.8373L14.4955 12.544C14.6043 13.2553 14.3852 14.0074 13.8384 14.5538V14.5538Z" fill="#B50D0D"/>
</svg>
