<svg width="19" height="19" viewBox="0 0 19 19" fill="none" xmlns="http://www.w3.org/2000/svg">
<g clip-path="url(#clip0_738_7261)">
<path d="M18.4434 17.8867H14.5098V8.81051C15.1577 8.58073 15.623 7.962 15.623 7.23633C15.623 6.31553 14.8739 5.56641 13.9531 5.56641H11.1189L8.97353 4.13621C9.62183 3.74653 10.0566 3.03647 10.0566 2.22656C10.0566 0.998836 9.05781 0 7.83008 0C6.60235 0 5.60352 0.998836 5.60352 2.22656C5.60352 2.80803 5.8278 3.33795 6.19415 3.73495C6.12423 3.7944 6.059 3.85982 5.9991 3.93092C5.60203 3.56432 5.07196 3.33984 4.49023 3.33984C3.26251 3.33984 2.26367 4.33868 2.26367 5.56641V10.5762C2.26367 11.497 3.0128 12.2461 3.93359 12.2461H5.04688C5.24203 12.2461 5.42929 12.2121 5.60352 12.1504V13.4138L3.65542 16.4068C3.35925 16.8533 3.30014 17.3958 3.47247 17.8867H0.556641C0.249227 17.8867 0 18.1359 0 18.4434C0 18.7508 0.249227 19 0.556641 19H18.4434C18.7508 19 19 18.7508 19 18.4434C19 18.1359 18.7508 17.8867 18.4434 17.8867ZM7.83008 1.11328C8.44394 1.11328 8.94336 1.6127 8.94336 2.22656C8.94336 2.84043 8.44394 3.33984 7.83008 3.33984C7.21621 3.33984 6.7168 2.84043 6.7168 2.22656C6.7168 1.6127 7.21621 1.11328 7.83008 1.11328ZM3.37695 5.56641C3.37695 4.95254 3.87637 4.45312 4.49023 4.45312C5.1041 4.45312 5.60352 4.95254 5.60352 5.56641V6.67969H3.37695V5.56641ZM5.04688 11.1328H3.93359C3.62666 11.1328 3.37695 10.8831 3.37695 10.5762V7.79297H5.60352V10.5762C5.60352 10.8831 5.35381 11.1328 5.04688 11.1328ZM5.04576 17.8867C4.60412 17.8867 4.33753 17.3908 4.58379 17.0212C4.5849 17.0195 4.58601 17.0179 4.58709 17.0162L6.62666 13.8827C6.68548 13.7923 6.7168 13.6868 6.7168 13.579V12.212L7.83008 12.9542V13.916C7.83008 14.0262 7.79776 14.133 7.73656 14.2248C7.73552 14.2263 7.73448 14.2279 7.73345 14.2294L5.50881 17.6406C5.40502 17.7947 5.23212 17.8867 5.04576 17.8867ZM6.67742 17.8867L8.66463 14.8396C8.84699 14.565 8.94336 14.2457 8.94336 13.916V17.3301C8.94336 17.5252 8.97731 17.7125 9.0391 17.8867H6.67742ZM13.3965 17.8867H12.1875C12.2492 17.7125 12.2832 17.5252 12.2832 17.3301V12.8027C12.2832 12.2431 12.0052 11.7237 11.5396 11.4133L8.94336 9.68247V8.13L9.68699 8.62574C9.96223 8.80925 10.2825 8.90625 10.6133 8.90625H13.3965V17.8867ZM13.9531 7.79297H10.6133C10.503 7.79297 10.3963 7.76065 10.3045 7.69945C9.98528 7.48663 9.01275 6.83826 8.69551 6.62677C8.32612 6.38051 7.83012 6.64714 7.83012 7.08993V7.0916C7.83012 7.09234 7.83012 7.09309 7.83012 7.09379V9.98038C7.83012 10.1665 7.92315 10.3403 8.07801 10.4435L10.9221 12.3396C11.0773 12.4431 11.17 12.6162 11.17 12.8027V17.3301C11.17 17.637 10.9203 17.8867 10.6134 17.8867C10.3064 17.8867 10.0567 17.637 10.0567 17.3301V13.3985C10.0567 13.2124 9.96368 13.0386 9.80882 12.9354C9.76299 12.9048 7.0585 11.1018 6.96472 11.0393C6.8095 10.9358 6.71683 10.7627 6.71683 10.5762C6.71683 10.344 6.71683 5.24367 6.71683 5.00977C6.71683 5.00969 6.71683 5.00962 6.71683 5.00954C6.71683 5.00947 6.71683 5.00939 6.71683 5.00932C6.71639 4.56605 7.21258 4.29983 7.58222 4.54664L10.6416 6.58621C10.733 6.64714 10.8404 6.67969 10.9503 6.67969H13.9531C14.2601 6.67969 14.5098 6.9294 14.5098 7.23633C14.5098 7.54326 14.2601 7.79297 13.9531 7.79297Z" fill="#B50D0D"/>
</g>
<defs>
<clipPath id="clip0_738_7261">
<rect width="19" height="19" fill="white"/>
</clipPath>
</defs>
</svg>
