<svg width="19" height="19" viewBox="0 0 19 19" fill="none" xmlns="http://www.w3.org/2000/svg">
<g clip-path="url(#clip0_738_7415)">
<path d="M12.9512 2.09668C12.9512 1.55444 12.51 1.11328 11.9678 1.11328C11.7955 1.11328 11.6336 1.15792 11.4927 1.236C11.3643 0.84216 10.9938 0.556641 10.5576 0.556641C10.3854 0.556641 10.2235 0.601283 10.0825 0.679361C9.95418 0.28552 9.58361 0 9.14746 0C8.87111 0 8.62121 0.114742 8.44238 0.298879C8.26355 0.114742 8.01366 0 7.7373 0C7.19506 0 6.75391 0.441156 6.75391 0.983398V2.54381C6.32737 2.85056 6.04883 3.35075 6.04883 3.91508V5.02836C6.04883 6.13188 6.57322 7.16118 7.45898 7.81126V18.7217C7.45898 18.8754 7.58356 19 7.7373 19H11.2627C11.4164 19 11.541 18.8754 11.541 18.7217V7.81134C12.4268 7.16137 12.9512 6.13203 12.9512 5.02832V2.09668ZM10.1309 1.54004C10.1309 1.30473 10.3223 1.11328 10.5576 1.11328C10.7929 1.11328 10.9844 1.30473 10.9844 1.54004V3.20996C10.9844 3.44527 10.7929 3.63672 10.5576 3.63672C10.3223 3.63672 10.1309 3.44527 10.1309 3.20996V1.54004ZM8.7207 0.983398C8.7207 0.748088 8.91215 0.556641 9.14746 0.556641C9.38277 0.556641 9.57422 0.748088 9.57422 0.983398V2.32887C9.43959 2.26345 9.28796 2.22656 9.12753 2.22656H8.7207V0.983398ZM7.31055 0.983398C7.31055 0.748088 7.50199 0.556641 7.7373 0.556641C7.97262 0.556641 8.16406 0.748088 8.16406 0.983398V2.22656H7.7373C7.58991 2.22656 7.44692 2.24567 7.31055 2.2813V0.983398ZM12.3945 5.02832C12.3945 5.99624 11.9136 6.89607 11.1079 7.43531C11.0307 7.48696 10.9844 7.57373 10.9844 7.66661V18.4434H8.01562V7.66654C8.01562 7.57369 7.96931 7.48693 7.89216 7.43527C7.08648 6.89589 6.60547 5.9961 6.60547 5.02832V3.91504C6.60547 3.29093 7.11324 2.7832 7.7373 2.7832H9.12753C9.36303 2.7832 9.56316 2.96522 9.5737 3.18899C9.57923 3.30726 9.53755 3.41929 9.45629 3.5045C9.37494 3.58974 9.26525 3.63672 9.14746 3.63672H7.7373C7.58356 3.63672 7.45898 3.76133 7.45898 3.91504V5.02832C7.45898 5.18203 7.58356 5.30664 7.7373 5.30664C8.51601 5.30664 9.23311 5.73121 9.60862 6.41469C9.68265 6.54936 9.85183 6.5986 9.98658 6.52457C10.1213 6.45054 10.1705 6.28132 10.0965 6.14661C9.66829 5.36728 8.88755 4.85498 8.01566 4.76436V4.19336H9.1475C9.41213 4.19336 9.66863 4.08455 9.85291 3.89485C10.0317 4.07877 10.2815 4.19336 10.5577 4.19336C10.834 4.19336 11.0839 4.07862 11.2627 3.89448C11.4416 4.07862 11.6915 4.19336 11.9678 4.19336C12.1206 4.19336 12.2654 4.15829 12.3946 4.09584V5.02832H12.3945ZM12.3945 3.20996C12.3945 3.44527 12.2031 3.63672 11.9678 3.63672C11.7325 3.63672 11.541 3.44527 11.541 3.20996V2.09668C11.541 1.86137 11.7325 1.66992 11.9678 1.66992C12.2031 1.66992 12.3945 1.86137 12.3945 2.09668V3.20996Z" fill="#B50D0D"/>
<path d="M5.91895 7.92188C5.74672 7.92188 5.58481 7.96652 5.44387 8.0446C5.31551 7.65072 4.94497 7.36523 4.50879 7.36523C4.33656 7.36523 4.17462 7.40988 4.03371 7.48796C3.90535 7.09411 3.53478 6.80859 3.09863 6.80859C2.82228 6.80859 2.57238 6.92334 2.39355 7.10747C2.21472 6.92334 1.96483 6.80859 1.68848 6.80859C1.14623 6.80859 0.705078 7.24975 0.705078 7.79199V9.3524C0.278543 9.65915 0 10.1593 0 10.7236V11.8369C0 12.9404 0.524393 13.9697 1.41016 14.6198V15.0098C1.41016 15.1635 1.53473 15.2881 1.68848 15.2881C1.84222 15.2881 1.9668 15.1635 1.9668 15.0098V14.4751C1.9668 14.3823 1.92048 14.2955 1.8433 14.2439C1.03765 13.7045 0.556641 12.8047 0.556641 11.8369V10.7236C0.556641 10.0995 1.06441 9.5918 1.68848 9.5918H3.07871C3.3142 9.5918 3.51433 9.77382 3.52483 9.99759C3.5304 10.1159 3.48873 10.2279 3.40746 10.3131C3.32611 10.3984 3.21642 10.4453 3.09863 10.4453H1.68848C1.53473 10.4453 1.41016 10.5699 1.41016 10.7236V11.8369C1.41016 11.9906 1.53473 12.1152 1.68848 12.1152C2.46718 12.1152 3.18428 12.5398 3.55979 13.2233C3.63382 13.358 3.80301 13.4072 3.93775 13.3332C4.07249 13.2591 4.12166 13.0899 4.04767 12.9552C3.61943 12.1759 2.83868 11.6636 1.9668 11.573V11.002H3.09863C3.36326 11.002 3.61976 10.8931 3.80404 10.7034C3.98284 10.8874 4.23262 11.002 4.50879 11.002C4.78514 11.002 5.03504 10.8872 5.21387 10.7031C5.3927 10.8872 5.64259 11.002 5.91895 11.002C6.07176 11.002 6.21656 10.9669 6.3457 10.9044V11.8369C6.3457 12.8048 5.86473 13.7047 5.05905 14.2439C4.98186 14.2956 4.93555 14.3823 4.93555 14.4752V18.4424H1.9668V16.123C1.9668 15.9693 1.84222 15.8447 1.68848 15.8447C1.53473 15.8447 1.41016 15.9693 1.41016 16.123V18.7207C1.41016 18.8744 1.53473 18.999 1.68848 18.999H5.21387C5.36761 18.999 5.49219 18.8744 5.49219 18.7207V14.6199C6.37795 13.97 6.90234 12.9406 6.90234 11.8369V8.90527C6.90234 8.36303 6.46119 7.92188 5.91895 7.92188ZM2.11523 9.03516H1.68848C1.54108 9.03516 1.3981 9.05427 1.26172 9.08989V7.79199C1.26172 7.55668 1.45317 7.36523 1.68848 7.36523C1.92379 7.36523 2.11523 7.55668 2.11523 7.79199V9.03516ZM3.52539 9.13747C3.39076 9.07204 3.23913 9.03516 3.07871 9.03516H2.67188V7.79199C2.67188 7.55668 2.86332 7.36523 3.09863 7.36523C3.33394 7.36523 3.52539 7.55668 3.52539 7.79199V9.13747ZM4.93555 10.0186C4.93555 10.2539 4.7441 10.4453 4.50879 10.4453C4.27348 10.4453 4.08203 10.2539 4.08203 10.0186V8.34863C4.08203 8.11332 4.27348 7.92188 4.50879 7.92188C4.7441 7.92188 4.93555 8.11332 4.93555 8.34863V10.0186ZM6.3457 10.0186C6.3457 10.2539 6.15426 10.4453 5.91895 10.4453C5.68363 10.4453 5.49219 10.2539 5.49219 10.0186V8.90527C5.49219 8.66996 5.68363 8.47852 5.91895 8.47852C6.15426 8.47852 6.3457 8.66996 6.3457 8.90527V10.0186Z" fill="#B50D0D"/>
<path d="M18.0166 7.92188C17.8444 7.92188 17.6825 7.96652 17.5415 8.0446C17.4132 7.65072 17.0426 7.36523 16.6064 7.36523C16.4342 7.36523 16.2723 7.40988 16.1314 7.48796C16.003 7.09408 15.6325 6.80859 15.1963 6.80859C14.9199 6.80859 14.67 6.92334 14.4912 7.10747C14.3124 6.92334 14.0625 6.80859 13.7861 6.80859C13.2439 6.80859 12.8027 7.24975 12.8027 7.79199V9.3524C12.3762 9.65915 12.0977 10.1593 12.0977 10.7237V11.837C12.0977 12.9405 12.622 13.9698 13.5078 14.6199V18.7207C13.5078 18.8744 13.6324 18.999 13.7861 18.999H17.3115C17.4653 18.999 17.5898 18.8744 17.5898 18.7207V14.6199C18.4756 13.97 19 12.9406 19 11.8369V8.90527C19 8.36303 18.5588 7.92188 18.0166 7.92188ZM16.1797 8.34863C16.1797 8.11332 16.3711 7.92188 16.6064 7.92188C16.8418 7.92188 17.0332 8.11332 17.0332 8.34863V10.0186C17.0332 10.2539 16.8418 10.4453 16.6064 10.4453C16.3711 10.4453 16.1797 10.2539 16.1797 10.0186V8.34863ZM14.7695 7.79199C14.7695 7.55668 14.961 7.36523 15.1963 7.36523C15.4316 7.36523 15.623 7.55668 15.623 7.79199V9.13747C15.4884 9.07204 15.3368 9.03516 15.1764 9.03516H14.7695V7.79199ZM13.3594 7.79199C13.3594 7.55668 13.5508 7.36523 13.7861 7.36523C14.0214 7.36523 14.2129 7.55668 14.2129 7.79199V9.03516H13.7861C13.6387 9.03516 13.4958 9.05427 13.3594 9.08989V7.79199ZM18.4434 11.8369C18.4434 12.8048 17.9624 13.7047 17.1567 14.2439C17.0795 14.2956 17.0332 14.3823 17.0332 14.4752V18.4424H14.0645V14.4751C14.0645 14.3823 14.0181 14.2955 13.941 14.2439C13.1353 13.7045 12.6543 12.8047 12.6543 11.8369V10.7236C12.6543 10.0995 13.1621 9.5918 13.7861 9.5918H15.1764C15.4119 9.5918 15.612 9.77382 15.6225 9.99759C15.6281 10.1159 15.5864 10.2279 15.5051 10.3131C15.4238 10.3984 15.3141 10.4453 15.1963 10.4453H13.7861C13.6324 10.4453 13.5078 10.5699 13.5078 10.7236V11.8369C13.5078 11.9906 13.6324 12.1152 13.7861 12.1152C14.5648 12.1152 15.2819 12.5398 15.6574 13.2233C15.7314 13.358 15.9006 13.4072 16.0354 13.3332C16.1702 13.2591 16.2193 13.0899 16.1453 12.9552C15.7171 12.1759 14.9364 11.6636 14.0645 11.573V11.002H15.1963C15.461 11.002 15.7175 10.8931 15.9017 10.7034C16.0805 10.8874 16.3303 11.002 16.6065 11.002C16.8828 11.002 17.1327 10.8872 17.3116 10.7031C17.4904 10.8872 17.7403 11.002 18.0166 11.002C18.1695 11.002 18.3143 10.9669 18.4434 10.9044V11.8369H18.4434ZM18.4434 10.0186C18.4434 10.2539 18.2519 10.4453 18.0166 10.4453C17.7813 10.4453 17.5898 10.2539 17.5898 10.0186V8.90527C17.5898 8.66996 17.7813 8.47852 18.0166 8.47852C18.2519 8.47852 18.4434 8.66996 18.4434 8.90527V10.0186Z" fill="#B50D0D"/>
</g>
<defs>
<clipPath id="clip0_738_7415">
<rect width="19" height="19" fill="white"/>
</clipPath>
</defs>
</svg>
