<svg width="15" height="19" viewBox="0 0 15 19" fill="none" xmlns="http://www.w3.org/2000/svg">
<path fill-rule="evenodd" clip-rule="evenodd" d="M3.93766 4.35352C3.93766 2.386 5.53264 0.791016 7.50016 0.791016C9.46768 0.791016 11.0627 2.386 11.0627 4.35352V9.49935C11.0627 11.4669 9.46768 13.0619 7.50016 13.0619C5.53265 13.0619 3.93766 11.4669 3.93766 9.49935V4.35352ZM7.50016 2.37435C6.4071 2.37435 5.521 3.26045 5.521 4.35352V9.49935C5.521 10.5924 6.4071 11.4785 7.50016 11.4785C8.59323 11.4785 9.47933 10.5924 9.47933 9.49935V4.35352C9.47933 3.26045 8.59323 2.37435 7.50016 2.37435ZM1.56266 8.31185C1.99989 8.31185 2.35433 8.66629 2.35433 9.10352C2.35433 11.9455 4.65819 14.2494 7.50016 14.2494C10.3421 14.2494 12.646 11.9455 12.646 9.10352C12.646 8.66629 13.0004 8.31185 13.4377 8.31185C13.8749 8.31185 14.2293 8.66629 14.2293 9.10352C14.2293 12.5521 11.6352 15.3948 8.29183 15.7866V17.416C8.29183 17.8532 7.93739 18.2077 7.50016 18.2077C7.06294 18.2077 6.7085 17.8532 6.7085 17.416V15.7866C3.36514 15.3948 0.770996 12.5521 0.770996 9.10352C0.770996 8.66629 1.12544 8.31185 1.56266 8.31185Z" fill="#B50D0D"/>
</svg>
