<svg width="19" height="19" viewBox="0 0 19 19" fill="none" xmlns="http://www.w3.org/2000/svg">
<g clip-path="url(#clip0_738_7315)">
<path d="M18.1094 0.59375H14.5469C14.383 0.59375 14.25 0.726453 14.25 0.890625V2.07812C14.25 2.2423 14.383 2.375 14.5469 2.375H15.3146L12.4803 5.20956C11.639 4.52823 10.5913 4.15625 9.5 4.15625C8.40869 4.15625 7.36102 4.52823 6.51967 5.20956L5.91197 4.60156L6.44427 4.06927C6.56034 3.95319 6.56034 3.76556 6.44427 3.64948L5.55364 2.75886C5.43756 2.64278 5.24994 2.64278 5.13386 2.75886L4.60156 3.29116L3.68541 2.375H4.45312C4.617 2.375 4.75 2.2423 4.75 2.07812V0.890625C4.75 0.726453 4.617 0.59375 4.45312 0.59375H0.890625C0.72675 0.59375 0.59375 0.726453 0.59375 0.890625V4.45312C0.59375 4.6173 0.72675 4.75 0.890625 4.75H2.07812C2.242 4.75 2.375 4.6173 2.375 4.45312V3.68541L3.29116 4.60156L2.75886 5.13386C2.64278 5.24994 2.64278 5.43756 2.75886 5.55364L3.64948 6.44427C3.76556 6.56034 3.95319 6.56034 4.06927 6.44427L4.60156 5.91197L5.32594 6.63634C4.94831 7.32895 4.75 8.10825 4.75 8.90625C4.75 11.1907 6.39172 13.1519 8.60938 13.5708V15.1406H7.71875C7.55487 15.1406 7.42188 15.2733 7.42188 15.4375V16.625C7.42188 16.7892 7.55487 16.9219 7.71875 16.9219H8.60938V18.1094C8.60938 18.2735 8.74238 18.4062 8.90625 18.4062H10.0938C10.2576 18.4062 10.3906 18.2735 10.3906 18.1094V16.9219H11.2812C11.4451 16.9219 11.5781 16.7892 11.5781 16.625V15.4375C11.5781 15.2733 11.4451 15.1406 11.2812 15.1406H10.3906V13.5708C12.6083 13.1519 14.25 11.1907 14.25 8.90625C14.25 8.10825 14.0517 7.32895 13.6741 6.63634L16.625 3.68541V4.45312C16.625 4.6173 16.758 4.75 16.9219 4.75H18.1094C18.2733 4.75 18.4062 4.6173 18.4062 4.45312V0.890625C18.4062 0.726453 18.2733 0.59375 18.1094 0.59375ZM17.8125 4.15625H17.2188V2.96875C17.2188 2.84881 17.1463 2.74016 17.0356 2.69444C16.9242 2.64813 16.7969 2.67395 16.712 2.75886L13.0931 6.37777C12.996 6.47484 12.9782 6.62566 13.0497 6.74262C13.4464 7.3907 13.6562 8.13853 13.6562 8.90625C13.6562 10.982 12.108 12.752 10.0549 13.0236C9.90731 13.0432 9.79688 13.1688 9.79688 13.3178V15.4375C9.79688 15.6017 9.92988 15.7344 10.0938 15.7344H10.9844V16.3281H10.0938C9.92988 16.3281 9.79688 16.4608 9.79688 16.625V17.8125H9.20312V16.625C9.20312 16.4608 9.07012 16.3281 8.90625 16.3281H8.01562V15.7344H8.90625C9.07012 15.7344 9.20312 15.6017 9.20312 15.4375V13.3178C9.20312 13.1688 9.09269 13.0429 8.94514 13.0236C6.89195 12.752 5.34375 10.982 5.34375 8.90625C5.34375 8.13853 5.55364 7.3907 5.94997 6.74292C6.02181 6.62566 6.004 6.47514 5.90662 6.37806L4.81116 5.28259C4.75594 5.22648 4.68023 5.19531 4.60156 5.19531C4.52289 5.19531 4.44719 5.22648 4.39167 5.2823L3.85938 5.81459L3.38853 5.34375L3.92083 4.81145C4.03691 4.69538 4.03691 4.50775 3.92083 4.39167L2.28802 2.75886C2.20281 2.67395 2.07545 2.64813 1.96442 2.69444C1.85369 2.74016 1.78125 2.84881 1.78125 2.96875V4.15625H1.1875V1.1875H4.15625V1.78125H2.96875C2.84881 1.78125 2.74045 1.85339 2.69444 1.96442C2.64842 2.07545 2.67395 2.20311 2.75886 2.28802L4.39167 3.92083C4.50775 4.03691 4.69538 4.03691 4.81145 3.92083L5.34375 3.38853L5.81459 3.85938L5.2823 4.39167C5.16622 4.50775 5.16622 4.69538 5.2823 4.81145L6.29464 5.8238C6.40686 5.93661 6.58736 5.94017 6.70463 5.833C7.46937 5.13475 8.46212 4.75 9.5 4.75C10.5379 4.75 11.5306 5.13475 12.2954 5.833C12.4126 5.93988 12.5931 5.93661 12.7054 5.8238L16.2411 2.28802C16.326 2.20311 16.3516 2.07545 16.3056 1.96442C16.2595 1.85339 16.1512 1.78125 16.0312 1.78125H14.8438V1.1875H17.8125V4.15625Z" fill="#B50D0D"/>
<path d="M9.5 5.64062C7.69945 5.64062 6.23438 7.1057 6.23438 8.90625C6.23438 10.7068 7.69945 12.1719 9.5 12.1719C11.3005 12.1719 12.7656 10.7068 12.7656 8.90625C12.7656 7.1057 11.3005 5.64062 9.5 5.64062ZM9.5 11.5781C8.02691 11.5781 6.82812 10.3796 6.82812 8.90625C6.82812 7.43286 8.02691 6.23438 9.5 6.23438C10.9731 6.23438 12.1719 7.43286 12.1719 8.90625C12.1719 10.3796 10.9731 11.5781 9.5 11.5781Z" fill="#B50D0D"/>
</g>
<defs>
<clipPath id="clip0_738_7315">
<rect width="19" height="19" fill="white"/>
</clipPath>
</defs>
</svg>
