<svg width="19" height="19" viewBox="0 0 19 19" fill="none" xmlns="http://www.w3.org/2000/svg">
<g clip-path="url(#clip0_738_7451)">
<path d="M12.2832 2.7832C12.2832 1.24854 11.0347 0 9.5 0C7.96534 0 6.7168 1.24854 6.7168 2.7832C6.7168 4.31786 7.96534 5.56641 9.5 5.56641C11.0347 5.56641 12.2832 4.31786 12.2832 2.7832ZM9.5 4.45312C8.57921 4.45312 7.83008 3.704 7.83008 2.7832C7.83008 1.86241 8.57921 1.11328 9.5 1.11328C10.4208 1.11328 11.1699 1.86241 11.1699 2.7832C11.1699 3.704 10.4208 4.45312 9.5 4.45312Z" fill="#B50D0D"/>
<path d="M18.991 14.5469L17.7519 13.5556C16.2939 12.3891 15.3343 10.7337 15.1193 9.01376C14.8786 7.08826 13.3436 5.56641 11.4144 5.56641H7.58534C5.65261 5.56641 4.12081 7.09171 3.88045 9.01376C3.6654 10.7337 2.70586 12.3891 1.24783 13.5556L0.00878906 14.5469C0.00878906 14.5469 1.67173 14.5459 1.70981 14.5452C1.35875 15.011 1.15027 15.5899 1.15027 16.2168C1.15027 17.7462 2.39039 18.9911 3.91785 18.9996L3.91711 19H15.0663C16.6009 19 17.8495 17.7515 17.8495 16.2168C17.8495 15.5902 17.6412 15.0114 17.2904 14.5457C17.3283 14.5465 18.991 14.5469 18.991 14.5469ZM4.98516 9.15191C5.16425 7.71942 6.25779 6.67969 7.58534 6.67969H11.4144C12.742 6.67969 13.8355 7.71942 14.0146 9.15191C14.1932 10.58 14.807 11.9659 15.7533 13.1316C14.4768 12.6554 13.3752 11.6437 12.7416 10.2942L11.9955 8.70471L10.8319 15.2818C10.3906 15.5143 9.94212 15.7543 9.49985 15.993C9.01568 15.7317 8.57349 15.4958 8.16988 15.2832L7.09995 9.00162L6.34343 10.5831C5.78527 11.7499 4.57543 12.7108 3.22339 13.1598C4.18285 11.9883 4.80514 10.5916 4.98516 9.15191V9.15191ZM6.5305 12.2885L6.93147 14.6424C5.95382 14.1477 5.28856 13.8434 4.82295 13.6638C5.4711 13.2964 6.05558 12.8291 6.5305 12.2885V12.2885ZM6.02129 17.8867H3.93348C3.01268 17.8867 2.26355 17.1376 2.26355 16.2168C2.26355 15.2972 3.01068 14.5489 3.92977 14.5469C4.52975 14.5932 7.79656 16.343 8.33038 16.6284C7.37062 17.1525 6.57563 17.591 6.02129 17.8867ZM15.0663 17.8867H8.34953C9.05502 17.5006 14.2907 14.6048 15.0699 14.5469C15.9891 14.5489 16.7362 15.2972 16.7362 16.2168C16.7362 17.1376 15.9871 17.8867 15.0663 17.8867ZM12.0764 14.6378L12.5313 12.0663C13.0122 12.6826 13.5981 13.2139 14.2645 13.6288C13.8176 13.7957 13.1431 14.0983 12.0764 14.6378V14.6378Z" fill="#B50D0D"/>
</g>
<defs>
<clipPath id="clip0_738_7451">
<rect width="19" height="19" fill="white"/>
</clipPath>
</defs>
</svg>
