<svg width="17" height="19" viewBox="0 0 17 19" fill="none" xmlns="http://www.w3.org/2000/svg">
<path d="M15.8 11.3109L13.3494 9.56216L12.0827 7.03159C11.9191 6.70212 11.6665 6.42502 11.3535 6.23167C11.0405 6.03831 10.6797 5.93642 10.3118 5.93751H6.68832C6.3203 5.93627 5.95929 6.03809 5.64616 6.23146C5.33303 6.42482 5.08029 6.70199 4.91657 7.03159L3.64991 9.56216L1.20326 11.3086C0.915844 11.5084 0.711824 11.8068 0.629949 12.1472C0.548074 12.4875 0.594047 12.8461 0.759137 13.1547C0.855593 13.3232 0.9862 13.4696 1.14258 13.5846C1.29895 13.6996 1.47764 13.7806 1.66718 13.8225C1.76405 13.8437 1.86292 13.8543 1.96207 13.8542C2.07319 13.8528 2.18375 13.8382 2.29141 13.8106C2.25643 14.1621 2.33924 14.5153 2.52682 14.8145C2.7144 15.1138 2.99612 15.3423 3.3277 15.464L4.44632 15.8729C4.32322 16.1009 4.25811 16.3556 4.25672 16.6147C4.25706 16.8017 4.28932 16.9872 4.35212 17.1633C4.46681 17.4702 4.6725 17.7348 4.94168 17.9215C5.21085 18.1083 5.53065 18.2083 5.85826 18.2083C6.04265 18.2083 6.22562 18.1762 6.39897 18.1133L8.50005 17.347L10.6015 18.1118C10.9037 18.223 11.2326 18.2398 11.5446 18.1599C11.8565 18.08 12.1369 17.9073 12.3484 17.6645C12.56 17.4218 12.6929 17.1205 12.7294 16.8006C12.7659 16.4806 12.7044 16.1571 12.553 15.8729L13.6744 15.4648C13.9813 15.3517 14.2462 15.1474 14.4336 14.8792C14.621 14.6111 14.7218 14.2921 14.7226 13.965C14.7226 13.9136 14.7142 13.8625 14.7091 13.811C14.8159 13.8385 14.9257 13.853 15.0361 13.8542C15.2883 13.8547 15.5359 13.7863 15.7522 13.6564C15.9684 13.5265 16.1451 13.3401 16.2631 13.1171C16.4177 12.811 16.4559 12.4592 16.3707 12.1271C16.2856 11.7949 16.0828 11.5049 15.8 11.3109ZM5.72922 12.9438L4.4206 12.4688C4.40476 12.4628 4.38814 12.4612 4.37191 12.4561L5.54357 11.6197C5.61012 11.5727 5.67226 11.5197 5.72922 11.4614V12.9438ZM6.12901 17.3688C5.92902 17.4406 5.70881 17.4311 5.51575 17.3423C5.3227 17.2535 5.17222 17.0924 5.09668 16.8938C5.06487 16.8039 5.04854 16.7093 5.04839 16.6139C5.04906 16.446 5.10266 16.2826 5.20157 16.1468L7.34422 16.9266L6.12901 17.3688ZM11.9042 16.8878C11.8311 17.0878 11.6818 17.2506 11.4889 17.3406C11.2959 17.4306 11.0752 17.4404 10.8751 17.368L3.59805 14.7203C3.4989 14.6841 3.40783 14.6288 3.33005 14.5575C3.25227 14.4862 3.18929 14.4002 3.14473 14.3046C3.10016 14.2089 3.07487 14.1054 3.0703 14C3.06573 13.8946 3.08198 13.7893 3.11811 13.6901C3.15423 13.591 3.20954 13.4999 3.28086 13.4221C3.35218 13.3443 3.43812 13.2813 3.53378 13.2368C3.62944 13.1922 3.73294 13.1669 3.83837 13.1624C3.94381 13.1578 4.04911 13.174 4.14826 13.2102L11.4225 15.8575C11.6229 15.9304 11.7861 16.0799 11.8764 16.2731C11.9667 16.4662 11.9767 16.6873 11.9042 16.8878ZM13.4052 14.7211L11.9664 15.2451C11.8801 15.1928 11.7891 15.1488 11.6944 15.1137L9.65826 14.3723L12.8514 13.2094C13.0514 13.1374 13.2717 13.1469 13.4648 13.2357C13.6579 13.3245 13.8083 13.4857 13.8838 13.6844C13.9156 13.7742 13.9319 13.8689 13.9321 13.9642C13.932 14.1292 13.8813 14.2902 13.7869 14.4255C13.6925 14.5609 13.5589 14.664 13.404 14.7211H13.4052ZM11.2741 12.9398V11.4586C11.3308 11.5167 11.3925 11.5697 11.4585 11.6169L12.6302 12.4533C12.6139 12.4585 12.5973 12.4597 12.5815 12.4656L11.2741 12.9398ZM15.5645 12.7419C15.5235 12.8154 15.4676 12.8795 15.4005 12.9302C15.3334 12.981 15.2564 13.0173 15.1746 13.0367C15.0927 13.0562 15.0077 13.0584 14.9249 13.0433C14.8421 13.0282 14.7634 12.996 14.6937 12.9489L11.9201 10.9697C11.8413 10.9135 11.7775 10.8389 11.734 10.7524L11.2313 9.75453C11.1914 9.67488 11.1258 9.61102 11.045 9.57329C10.9643 9.53557 10.8732 9.52618 10.7865 9.54664C10.6998 9.56711 10.6225 9.61623 10.5672 9.68607C10.5118 9.75591 10.4817 9.84237 10.4816 9.93147V13.2299L8.50243 13.9516L6.52326 13.2303V9.93147C6.52317 9.84237 6.49301 9.75591 6.43768 9.68607C6.38235 9.61623 6.30507 9.56711 6.21835 9.54664C6.13163 9.52618 6.04055 9.53557 5.95983 9.57329C5.87911 9.61102 5.81348 9.67488 5.77355 9.75453L5.27362 10.7536C5.23012 10.8408 5.16582 10.916 5.08639 10.9725L2.31318 12.9517C2.24541 13.0002 2.16818 13.034 2.08651 13.0507C2.00484 13.0674 1.92056 13.0668 1.83916 13.0488C1.75775 13.0308 1.68105 12.9959 1.61405 12.9463C1.54705 12.8966 1.49124 12.8335 1.45026 12.7609C1.38142 12.6229 1.36556 12.4645 1.40568 12.3156C1.4458 12.1667 1.53912 12.0377 1.66797 11.953L4.19497 10.1496C4.24765 10.112 4.29032 10.0622 4.31926 10.0043L5.62907 7.38587C5.72705 7.18869 5.87809 7.02276 6.06522 6.90674C6.25236 6.79073 6.46815 6.72924 6.68832 6.72918H10.3118C10.5327 6.72842 10.7494 6.78954 10.9374 6.9056C11.1254 7.02165 11.2771 7.18802 11.3754 7.38587L12.6852 10.0043C12.7141 10.0622 12.7568 10.112 12.8095 10.1496L15.3401 11.9542C15.4654 12.038 15.5568 12.1637 15.5977 12.3088C15.6386 12.454 15.6264 12.6089 15.5633 12.7458L15.5645 12.7419Z" fill="#B50D0D"/>
<path d="M11.0731 3.36393C11.0731 2.85506 10.9222 2.35761 10.6395 1.9345C10.3568 1.51138 9.95492 1.18161 9.48478 0.986868C9.01464 0.79213 8.49731 0.741178 7.99821 0.840455C7.49912 0.939731 7.04067 1.18478 6.68084 1.54461C6.32101 1.90444 6.07596 2.36289 5.97669 2.86198C5.87741 3.36108 5.92836 3.87841 6.1231 4.34855C6.31784 4.81869 6.64761 5.22052 7.07073 5.50324C7.49384 5.78595 7.99129 5.93685 8.50016 5.93685C9.18229 5.93601 9.83623 5.66467 10.3186 5.18233C10.8009 4.7 11.0722 4.04606 11.0731 3.36393ZM8.50016 5.14518C8.14787 5.14518 7.80348 5.04072 7.51055 4.84499C7.21763 4.64926 6.98932 4.37107 6.8545 4.04559C6.71969 3.72011 6.68441 3.36196 6.75314 3.01643C6.82187 2.6709 6.99152 2.35351 7.24063 2.1044C7.48974 1.85529 7.80713 1.68564 8.15266 1.61691C8.49819 1.54818 8.85634 1.58345 9.18182 1.71827C9.5073 1.85309 9.78549 2.0814 9.98122 2.37432C10.1769 2.66725 10.2814 3.01164 10.2814 3.36393C10.2809 3.83619 10.0931 4.28895 9.75912 4.62289C9.42518 4.95682 8.97242 5.14466 8.50016 5.14518Z" fill="#B50D0D"/>
<path d="M2.16683 4.74935H2.56266V5.14518C2.56266 5.25016 2.60437 5.35085 2.6786 5.42508C2.75283 5.49931 2.85351 5.54102 2.9585 5.54102C3.06348 5.54102 3.16416 5.49931 3.23839 5.42508C3.31263 5.35085 3.35433 5.25016 3.35433 5.14518V4.74935H3.75016C3.85514 4.74935 3.95583 4.70765 4.03006 4.63341C4.10429 4.55918 4.146 4.4585 4.146 4.35352C4.146 4.24853 4.10429 4.14785 4.03006 4.07362C3.95583 3.99939 3.85514 3.95768 3.75016 3.95768H3.35433V3.56185C3.35433 3.45687 3.31263 3.35619 3.23839 3.28195C3.16416 3.20772 3.06348 3.16602 2.9585 3.16602C2.85351 3.16602 2.75283 3.20772 2.6786 3.28195C2.60437 3.35619 2.56266 3.45687 2.56266 3.56185V3.95768H2.16683C2.06185 3.95768 1.96117 3.99939 1.88693 4.07362C1.8127 4.14785 1.771 4.24853 1.771 4.35352C1.771 4.4585 1.8127 4.55918 1.88693 4.63341C1.96117 4.70765 2.06185 4.74935 2.16683 4.74935Z" fill="#B50D0D"/>
<path d="M14.4378 7.1237C14.3328 7.1237 14.2322 7.1654 14.1579 7.23963C14.0837 7.31387 14.042 7.41455 14.042 7.51953C14.042 7.62451 14.0837 7.72519 14.1579 7.79943C14.2322 7.87366 14.3328 7.91536 14.4378 7.91536H14.8337V8.3112C14.8337 8.41618 14.8754 8.51686 14.9496 8.59109C15.0238 8.66533 15.1245 8.70703 15.2295 8.70703C15.3345 8.70703 15.4352 8.66533 15.5094 8.59109C15.5836 8.51686 15.6253 8.41618 15.6253 8.3112V7.91536H16.0212C16.1261 7.91536 16.2268 7.87366 16.3011 7.79943C16.3753 7.72519 16.417 7.62451 16.417 7.51953C16.417 7.41455 16.3753 7.31387 16.3011 7.23963C16.2268 7.1654 16.1261 7.1237 16.0212 7.1237H15.6253V6.72786C15.6253 6.62288 15.5836 6.5222 15.5094 6.44797C15.4352 6.37373 15.3345 6.33203 15.2295 6.33203C15.1245 6.33203 15.0238 6.37373 14.9496 6.44797C14.8754 6.5222 14.8337 6.62288 14.8337 6.72786V7.1237H14.4378Z" fill="#B50D0D"/>
<path d="M14.0418 4.35417C14.2604 4.35417 14.4377 4.17695 14.4377 3.95833C14.4377 3.73972 14.2604 3.5625 14.0418 3.5625C13.8232 3.5625 13.646 3.73972 13.646 3.95833C13.646 4.17695 13.8232 4.35417 14.0418 4.35417Z" fill="#B50D0D"/>
<path d="M0.979329 7.91667C1.19794 7.91667 1.37516 7.73945 1.37516 7.52083C1.37516 7.30222 1.19794 7.125 0.979329 7.125C0.760717 7.125 0.583496 7.30222 0.583496 7.52083C0.583496 7.73945 0.760717 7.91667 0.979329 7.91667Z" fill="#B50D0D"/>
</svg>
