<svg width="19" height="19" viewBox="0 0 19 19" fill="none" xmlns="http://www.w3.org/2000/svg">
<path d="M5.90902 3.64596L7.13185 4.78262L6.81144 6.42211C6.74817 6.74504 6.87497 7.06629 7.14235 7.26056C7.28986 7.36773 7.46108 7.42199 7.63342 7.42199C7.77258 7.42195 7.9124 7.38658 8.04091 7.31507L9.50042 6.50301L10.9278 7.29726C11.2232 7.47179 11.5747 7.46195 11.8469 7.2711C12.1192 7.08021 12.2541 6.74693 12.1905 6.42185L11.8691 4.78247L13.0713 3.665C13.3251 3.43822 13.4206 3.09863 13.3204 2.77753C13.2216 2.46054 12.9531 2.23885 12.6204 2.19906L10.9639 1.99838L10.2615 0.485762C10.1231 0.186363 9.83092 0.000296875 9.49864 0C9.49842 0 9.4982 0 9.49798 0C9.16867 0 8.87799 0.186215 8.73946 0.485576L8.03691 1.99845L6.38179 2.19955C6.05411 2.2381 5.78659 2.45764 5.68365 2.77248C5.58097 3.0865 5.66729 3.42115 5.90902 3.64596ZM6.38906 3.00319C6.39793 2.97606 6.41894 2.94248 6.46989 2.93646L8.33129 2.71028C8.45869 2.69481 8.56905 2.61462 8.62312 2.4982L9.41281 0.797703C9.41916 0.783973 9.43849 0.742225 9.49794 0.742225H9.49805C9.51738 0.742225 9.56492 0.747643 9.58774 0.797184C9.58789 0.797518 9.58804 0.797852 9.58819 0.798148L10.3776 2.4982C10.4317 2.61465 10.5421 2.69488 10.6696 2.71032L12.5316 2.93595C12.5472 2.9378 12.5947 2.94348 12.6119 2.99851C12.6194 3.02252 12.6247 3.06924 12.576 3.11221C12.5737 3.11429 12.5714 3.11637 12.5691 3.11852L11.2125 4.37946C11.1185 4.46686 11.0763 4.59666 11.101 4.72265L11.4621 6.5645C11.4735 6.62306 11.4297 6.65716 11.4208 6.6634C11.3871 6.68704 11.3501 6.68514 11.3041 6.65757C11.3006 6.65542 11.297 6.65338 11.2934 6.65137L9.68081 5.75407C9.6247 5.72282 9.56255 5.70724 9.50039 5.70724C9.43823 5.70724 9.37603 5.72286 9.31996 5.75407L7.68006 6.66648C7.64522 6.68588 7.61104 6.68369 7.57853 6.66006C7.5556 6.64343 7.53025 6.61334 7.53979 6.56461L7.89979 4.72247C7.92439 4.59652 7.8822 4.46682 7.78824 4.3795L6.41437 3.10245C6.38498 3.07507 6.37648 3.04171 6.38906 3.00319Z" fill="#B50D0D"/>
<path d="M15.6262 12.3719C15.5131 12.3051 15.3733 12.3031 15.2583 12.3665L13.7517 13.1973C13.5723 13.2963 13.507 13.522 13.606 13.7015C13.705 13.881 13.9307 13.9462 14.1101 13.8472L15.0664 13.3199V15.1354L9.50001 18.2052L3.93363 15.1354V13.3199L9.32081 16.2908C9.43236 16.3523 9.56766 16.3523 9.67921 16.2908L11.1855 15.4601C11.365 15.3611 11.4302 15.1354 11.3313 14.956C11.2323 14.7765 11.0066 14.7112 10.8271 14.8102L9.50001 15.5421L3.74174 12.3664C3.62677 12.3031 3.48687 12.3051 3.37384 12.3719C3.2608 12.4386 3.19141 12.5601 3.19141 12.6914V15.3545C3.19141 15.4897 3.26492 15.6141 3.3833 15.6794L9.32078 18.9538C9.37655 18.9846 9.43826 18.9999 9.49998 18.9999C9.56169 18.9999 9.6234 18.9846 9.67918 18.9538L15.6167 15.6794C15.735 15.6141 15.8085 15.4897 15.8085 15.3545V12.6914C15.8086 12.5601 15.7392 12.4386 15.6262 12.3719Z" fill="#B50D0D"/>
<path d="M15.6262 7.41684C15.5131 7.35004 15.3732 7.34804 15.2583 7.41142L9.50001 10.587L8.17265 9.85491C7.99319 9.75587 7.76749 9.82118 7.66849 10.0007C7.56952 10.1801 7.63475 10.4059 7.81425 10.5048L9.32081 11.3357C9.43236 11.3972 9.56766 11.3972 9.67921 11.3357L15.0664 8.36479V10.1803L9.49998 13.2501L3.93359 10.1803V8.36479L4.88964 8.892C5.0691 8.99101 5.29483 8.92566 5.3938 8.74624C5.49277 8.56678 5.42753 8.34104 5.24804 8.24207L3.7417 7.41138C3.62673 7.34796 3.48683 7.35004 3.3738 7.4168C3.26076 7.48356 3.19141 7.60502 3.19141 7.73631V10.3994C3.19141 10.5346 3.26492 10.6591 3.3833 10.7244L9.32077 13.9988C9.37655 14.0295 9.43826 14.0449 9.49998 14.0449C9.56169 14.0449 9.6234 14.0295 9.67917 13.9988L15.6167 10.7244C15.735 10.6591 15.8085 10.5346 15.8085 10.3994V7.73631C15.8085 7.60509 15.7392 7.4836 15.6262 7.41684Z" fill="#B50D0D"/>
<path d="M6.71526 9.05085C6.53728 8.94924 6.31076 9.0111 6.20908 9.18904C6.1074 9.36698 6.16934 9.59372 6.34728 9.69544C6.40535 9.72865 6.46863 9.74438 6.53104 9.74438C6.65989 9.74438 6.7851 9.67718 6.85356 9.55732C6.95524 9.37938 6.89342 9.15271 6.71548 9.051L6.71526 9.05085Z" fill="#B50D0D"/>
<path d="M12.4687 14.6993C12.535 14.6993 12.6022 14.6815 12.6628 14.6442L12.663 14.6441C12.8376 14.5366 12.8919 14.3082 12.7845 14.1336C12.677 13.9591 12.4484 13.9048 12.2738 14.0121C12.0993 14.1196 12.0449 14.3481 12.1523 14.5227C12.2224 14.6366 12.3441 14.6993 12.4687 14.6993Z" fill="#B50D0D"/>
</svg>
