<svg width="19" height="19" viewBox="0 0 19 19" fill="none" xmlns="http://www.w3.org/2000/svg">
<g clip-path="url(#clip0_738_7478)">
<path d="M8.53533 2.10156C7.18095 2.10156 6.0791 3.20341 6.0791 4.55779C6.0791 5.91214 7.18095 7.01399 8.53533 7.01399C9.88971 7.01399 10.9916 5.91214 10.9916 4.55779C10.9916 3.20341 9.88971 2.10156 8.53533 2.10156ZM8.53533 5.90067C7.79482 5.90067 7.19238 5.29824 7.19238 4.55776C7.19238 3.81728 7.79482 3.21481 8.53533 3.21481C9.27585 3.21481 9.87828 3.81724 9.87828 4.55776C9.87828 5.29824 9.27585 5.90067 8.53533 5.90067Z" fill="#B50D0D"/>
<path d="M4.55584 6.07812C3.20146 6.07812 2.09961 7.17998 2.09961 8.53432C2.09961 9.88866 3.20146 10.9905 4.5558 10.9905C5.91015 10.9905 7.01207 9.88866 7.01207 8.53432C7.01207 7.17998 5.91022 6.07812 4.55584 6.07812ZM4.55584 9.87723C3.81532 9.87723 3.21293 9.2748 3.21293 8.53432C3.21293 7.79384 3.81536 7.19141 4.55584 7.19141C5.29632 7.19141 5.89879 7.79384 5.89879 8.53432C5.89879 9.2748 5.29632 9.87723 4.55584 9.87723Z" fill="#B50D0D"/>
<path d="M8.53533 10.0566C7.18095 10.0566 6.0791 11.1585 6.0791 12.5128C6.0791 13.8672 7.18095 14.969 8.53533 14.969C9.88971 14.969 10.9916 13.8672 10.9916 12.5128C10.9916 11.1585 9.88971 10.0566 8.53533 10.0566ZM8.53533 13.8558C7.79482 13.8558 7.19238 13.2533 7.19238 12.5128C7.19238 11.7724 7.79482 11.1699 8.53533 11.1699C9.27585 11.1699 9.87828 11.7724 9.87828 12.5128C9.87828 13.2533 9.27585 13.8558 8.53533 13.8558Z" fill="#B50D0D"/>
<path d="M12.5143 6.07812C11.16 6.07812 10.0581 7.17998 10.0581 8.53432C10.0581 9.88866 11.16 10.9905 12.5143 10.9905C13.8687 10.9905 14.9705 9.88866 14.9705 8.53432C14.9705 7.17998 13.8687 6.07812 12.5143 6.07812ZM12.5143 9.87723C11.7739 9.87723 11.1714 9.2748 11.1714 8.53432C11.1714 7.79384 11.7739 7.19141 12.5143 7.19141C13.2549 7.19141 13.8573 7.79384 13.8573 8.53432C13.8573 9.2748 13.2548 9.87723 12.5143 9.87723Z" fill="#B50D0D"/>
<path d="M8.53517 7.69531C8.07205 7.69531 7.69531 8.07208 7.69531 8.53517C7.69531 8.99826 8.07205 9.37499 8.53517 9.37499C8.9983 9.37499 9.37503 8.99826 9.37503 8.53517C9.37503 8.07208 8.9983 7.69531 8.53517 7.69531Z" fill="#B50D0D"/>
<path d="M16.5137 15.957H12.7571C15.3477 14.4779 17.0703 11.7072 17.0703 8.53516C17.0703 3.81774 13.2529 0 8.53516 0C3.81774 0 0 3.81737 0 8.53516C0 13.2526 3.81737 17.0703 8.53516 17.0703H16.5137C17.2708 17.0703 17.8867 17.6863 17.8867 18.4434C17.8867 18.7508 18.1359 19 18.4434 19C18.7508 19 19 18.7508 19 18.4434C19 17.0724 17.8846 15.957 16.5137 15.957ZM1.11328 8.53516C1.11328 4.44273 4.44273 1.11328 8.53516 1.11328C12.6276 1.11328 15.957 4.44273 15.957 8.53516C15.957 12.6276 12.6276 15.957 8.53516 15.957C4.44273 15.957 1.11328 12.6276 1.11328 8.53516Z" fill="#B50D0D"/>
</g>
<defs>
<clipPath id="clip0_738_7478">
<rect width="19" height="19" fill="white"/>
</clipPath>
</defs>
</svg>
