<svg width="19" height="19" viewBox="0 0 19 19" fill="none" xmlns="http://www.w3.org/2000/svg">
<path d="M11.1699 5.60352C10.8013 5.60352 10.4327 5.64452 10.0566 5.72753V4.45312H10.6133C12.7618 4.45312 14.5098 2.70516 14.5098 0.556641V0H12.8398C11.5062 0 10.3272 0.673572 9.62443 1.69824C9.05023 0.685188 7.96208 0 6.7168 0V1.11328C7.94452 1.11328 8.94336 2.11212 8.94336 3.33984V5.72753C8.56726 5.64452 8.19872 5.60352 7.83008 5.60352C4.76076 5.60352 2.26367 8.10061 2.26367 11.1699H0V12.2832H2.3583C2.81245 15.1186 4.96846 19 7.83008 19C8.38664 19 8.94696 18.8457 9.5 18.5406C10.053 18.8457 10.6134 19 11.1699 19C14.0313 19 16.1874 15.1194 16.6417 12.2832H19V11.1699H16.7363C16.7363 8.10061 14.2392 5.60352 11.1699 5.60352ZM12.8398 1.11328H13.3406C13.0819 2.38209 11.9573 3.33984 10.6133 3.33984H10.1126C10.3712 2.07104 11.4958 1.11328 12.8398 1.11328ZM7.83008 6.7168C8.67075 6.7168 9.41472 7.03327 9.5 7.05765C9.62695 7.02132 10.3055 6.7168 11.1699 6.7168C13.6254 6.7168 15.623 8.71447 15.623 11.1699H12.6093L11.9699 11.8094L10.7164 8.04906L8.48985 12.5022L7.51673 9.58279L5.9296 11.1699H3.37695C3.37695 8.71447 5.37463 6.7168 7.83008 6.7168ZM11.1699 17.8867C10.3284 17.8867 9.67516 17.3194 9.5 17.2254C9.32477 17.3195 8.67164 17.8867 7.83008 17.8867C5.78179 17.8867 3.95044 14.7647 3.48887 12.2832H6.39072L7.03015 11.6438L8.28359 15.4041L10.5102 10.9509L11.4833 13.8703L13.0704 12.2832H15.5111C15.0496 14.7647 13.2182 17.8867 11.1699 17.8867Z" fill="#B50D0D"/>
</svg>
