<svg width="17" height="19" viewBox="0 0 17 19" fill="none" xmlns="http://www.w3.org/2000/svg">
<path d="M1.26367 15.6602V17.8867H0.150391V19H16.8496V17.8867H15.7363V15.6602H14.623V11.1699H15.1797C16.1005 11.1699 16.8496 10.4208 16.8496 9.5V7.83008H15.3124L9.05664 4.66743V3.33984H12.3965V0H7.94336V4.66743L1.68761 7.83008H0.150391V9.5C0.150391 10.4208 0.899518 11.1699 1.82031 11.1699H2.37695V15.6602H1.26367ZM9.05664 1.11328H11.2832V2.22656H9.05664V1.11328ZM2.37695 17.8867V16.7734H14.623V17.8867H2.37695ZM6.83008 11.1699V15.6602H5.7168V11.1699H6.83008ZM10.1699 15.6602V11.1699H11.2832V15.6602H10.1699ZM9.05664 15.6602H7.94336V11.1699H9.05664V15.6602ZM13.5098 15.6602H12.3965V11.1699H13.5098V15.6602ZM8.5 5.6335L12.8449 7.83008H4.15512L8.5 5.6335ZM1.26367 9.5V8.94336H15.7363V9.5C15.7363 9.80693 15.4866 10.0566 15.1797 10.0566H1.82031C1.51338 10.0566 1.26367 9.80693 1.26367 9.5ZM3.49023 11.1699H4.60352V15.6602H3.49023V11.1699Z" fill="#B50D0D"/>
</svg>
