<svg width="19" height="19" viewBox="0 0 19 19" fill="none" xmlns="http://www.w3.org/2000/svg">
<g clip-path="url(#clip0_738_7398)">
<path d="M18.9552 4.35594C18.9471 3.57034 18.8415 1.65972 18.0364 0.886883C17.1891 0.0735937 14.7871 -0.220127 12.1951 0.172713C10.3531 0.45185 6.8519 1.33104 4.1001 4.08289C1.35486 6.82813 0.486052 10.3133 0.212518 12.1465C-0.16648 14.6862 0.109169 17.0913 0.882825 17.9955C1.55558 18.7818 3.14364 18.957 4.03033 18.9914C4.1774 18.9971 4.32817 19 4.48299 19C7.44822 19 11.7689 17.9269 14.8565 14.8393C17.9261 11.7697 18.9864 7.41127 18.9552 4.35594ZM4.07353 17.8788C2.76935 17.8281 1.95618 17.5374 1.72884 17.2717C1.55617 17.0698 1.33252 16.5155 1.22267 15.5648C1.14415 14.885 1.09624 13.7688 1.31378 12.3108C1.33099 12.1955 1.35085 12.0728 1.37349 11.9441L7.05638 17.627C6.03064 17.8271 5.0118 17.9153 4.07353 17.8788ZM14.0692 14.052C12.7358 15.3854 10.9863 16.4428 9.0097 17.11C8.78363 17.1862 8.55545 17.2567 8.32615 17.3222L1.6593 10.6554C2.12161 8.93186 3.04497 6.71268 4.88745 4.8702C6.61062 3.14707 8.66577 2.22193 10.3402 1.72563L17.2207 8.60615C16.6496 10.5177 15.6483 12.4728 14.0692 14.052ZM17.5381 7.34889L11.5993 1.41009C11.8773 1.35287 12.1335 1.30822 12.362 1.27356C13.1203 1.15867 13.8134 1.11099 14.4263 1.11099C15.9417 1.11099 16.9657 1.40255 17.2653 1.69015C17.5324 1.9465 17.8267 2.89365 17.8418 4.3673C17.851 5.26575 17.7586 6.28533 17.5381 7.34889Z" fill="#B50D0D"/>
<path d="M13.2888 7.33354L12.8455 6.89004L13.1568 6.5787C13.3742 6.36127 13.3742 6.00881 13.1568 5.79138C12.9394 5.57396 12.5869 5.57396 12.3695 5.79138L12.0582 6.10273L11.6146 5.65916C11.3972 5.44174 11.0447 5.44174 10.8273 5.65916C10.6099 5.87659 10.6099 6.22905 10.8273 6.44647L11.2709 6.89004L10.6616 7.4993L10.2181 7.05577C10.0007 6.83835 9.64817 6.83835 9.43075 7.05577C9.21332 7.2732 9.21332 7.62566 9.43075 7.84309L9.87428 8.28662L9.24041 8.92048L8.78375 8.46381C8.56636 8.24639 8.21386 8.24639 7.99643 8.46381C7.77901 8.68124 7.77901 9.0337 7.99643 9.25113L8.4531 9.70779L7.84384 10.3171L7.38713 9.86035C7.16975 9.64293 6.81725 9.64293 6.59982 9.86035C6.3824 10.0778 6.3824 10.4302 6.59982 10.6477L7.05653 11.1044L6.4735 11.6874L6.02997 11.2439C5.81258 11.0264 5.46008 11.0264 5.24266 11.2439C5.02523 11.4613 5.02523 11.8138 5.24266 12.0312L5.68619 12.4747L5.55456 12.6064C5.33714 12.8238 5.33714 13.1763 5.55456 13.3937C5.66326 13.5024 5.80576 13.5568 5.94822 13.5568C6.09068 13.5568 6.23318 13.5025 6.34187 13.3937L6.4735 13.2621L6.91703 13.7056C7.02573 13.8143 7.16823 13.8687 7.31069 13.8687C7.45315 13.8687 7.59565 13.8144 7.70435 13.7056C7.92177 13.4882 7.92177 13.1357 7.70435 12.9183L7.26081 12.4747L7.84384 11.8917L8.27427 12.3222C8.38296 12.4308 8.52546 12.4852 8.66793 12.4852C8.81039 12.4852 8.95289 12.4309 9.06158 12.3222C9.27901 12.1047 9.27901 11.7523 9.06158 11.5348L8.63115 11.1044L9.24041 10.4951L9.67081 10.9255C9.7795 11.0342 9.922 11.0886 10.0645 11.0886C10.2069 11.0886 10.3494 11.0343 10.4581 10.9255C10.6755 10.7081 10.6755 10.3556 10.4581 10.1382L10.0277 9.70783L10.6616 9.07397L11.1051 9.5175C11.2138 9.62619 11.3563 9.68059 11.4988 9.68059C11.6412 9.68059 11.7837 9.62627 11.8924 9.5175C12.1099 9.30007 12.1099 8.94761 11.8924 8.73018L11.4489 8.28665L12.0582 7.67735L12.5017 8.12089C12.6104 8.22958 12.7529 8.28398 12.8954 8.28398C13.0379 8.28398 13.1804 8.22965 13.289 8.12089C13.5062 7.90343 13.5062 7.55096 13.2888 7.33354Z" fill="#B50D0D"/>
</g>
<defs>
<clipPath id="clip0_738_7398">
<rect width="19" height="19" fill="white"/>
</clipPath>
</defs>
</svg>
