<svg width="19" height="19" viewBox="0 0 19 19" fill="none" xmlns="http://www.w3.org/2000/svg">
<path fill-rule="evenodd" clip-rule="evenodd" d="M11.4791 3.95833C11.4791 2.42804 12.7196 1.1875 14.2499 1.1875C15.7802 1.1875 17.0207 2.42804 17.0207 3.95833C17.0207 5.48861 15.7802 6.72917 14.2499 6.72917C12.7196 6.72917 11.4791 5.48861 11.4791 3.95833ZM14.2499 2.77083C13.5941 2.77083 13.0624 3.3025 13.0624 3.95833C13.0624 4.61416 13.5941 5.14583 14.2499 5.14583C14.9057 5.14583 15.4374 4.61416 15.4374 3.95833C15.4374 3.3025 14.9057 2.77083 14.2499 2.77083ZM7.65876 4.79278C7.85542 4.72469 8.07097 4.73677 8.25879 4.82641L12.6117 6.90398C12.862 7.02346 13.0316 7.26522 13.0586 7.54127C13.0857 7.81732 12.9663 8.08739 12.7439 8.25316L9.29641 10.8231L12.706 13.0676C12.8885 13.1877 13.0132 13.3779 13.0507 13.5931C13.0881 13.8083 13.035 14.0294 12.9039 14.2041L10.1363 17.8911C9.87385 18.2408 9.37761 18.3115 9.02793 18.049C8.67825 17.7865 8.60756 17.2903 8.87004 16.9406L11.1321 13.9271L7.48249 11.5246C7.26687 11.3826 7.134 11.1445 7.12646 10.8864C7.11892 10.6284 7.23767 10.3829 7.44464 10.2286L10.7457 7.76782L7.86991 6.39523L5.00892 7.38586C4.59577 7.52892 4.14486 7.30996 4.0018 6.8968C3.85875 6.48364 4.07771 6.03274 4.49087 5.88968L7.65876 4.79278ZM17.9934 6.37145C18.2928 6.69009 18.2772 7.1911 17.9586 7.49049L15.5843 9.72141C15.3352 9.95541 14.9641 10.0032 14.6639 9.83994L13.6024 9.26265C13.2183 9.05377 13.0763 8.57306 13.2852 8.18896C13.4941 7.80486 13.9748 7.66282 14.3589 7.87171L14.9174 8.17543L16.8744 6.3366C17.193 6.03721 17.694 6.05281 17.9934 6.37145ZM7.14798 11.8562C7.49623 12.1205 7.56421 12.6172 7.29984 12.9654L6.12433 14.5138C6.05864 14.6004 5.97583 14.6725 5.88107 14.7256L1.97207 16.9182C1.59073 17.1321 1.1082 16.9964 0.894311 16.615C0.680417 16.2337 0.816154 15.7512 1.19749 15.5373L4.96283 13.4253L6.03874 12.008C6.30312 11.6598 6.79974 11.5918 7.14798 11.8562Z" fill="white"/>
</svg>
