<svg width="19" height="19" viewBox="0 0 19 19" fill="none" xmlns="http://www.w3.org/2000/svg">
<path d="M16.9961 14.1429V6.07362C16.9961 5.9549 16.9393 5.84328 16.8433 5.77341L15.9272 5.10732L16.6485 4.6565C16.752 4.59185 16.8171 4.48038 16.8226 4.35847C16.8279 4.23656 16.7731 4.11972 16.6759 4.04608L16.0065 3.53887V3.30273H16.625C16.83 3.30273 16.9961 3.13661 16.9961 2.93164V2.18945C16.9961 0.982239 16.0139 0 14.8066 0H2.15234C2.14857 0 2.1451 0.000434877 2.14147 0.000579834C2.13292 0.000434877 2.12466 0 2.1161 0C1.53178 0 0.988907 0.288612 0.587517 0.812782C0.208595 1.30753 0 1.95984 0 2.64955C0 3.88953 0.811623 4.89844 1.80923 4.89844H3.86227V10.7803C3.86227 10.9061 3.92591 11.0232 4.03144 11.0916L4.75899 11.5633L3.98607 12.2539C3.90736 12.3242 3.86227 12.425 3.86227 12.5306V15.7467C3.86227 15.7667 3.8643 15.7863 3.86735 15.8054C3.8643 15.8247 3.86227 15.8443 3.86227 15.8643C3.86227 16.8084 4.10609 17.603 4.56721 18.1623C5.01266 18.7024 5.64613 19 6.35078 19H16.5508C17.9014 19 19 17.9014 19 16.5508C19 15.3524 18.1346 14.3529 16.9961 14.1429V14.1429ZM3.04572 4.15625C3.15502 3.95026 3.21692 3.71253 3.21692 3.45712C3.21692 2.60157 2.66274 2.00391 1.86909 2.00391C1.66412 2.00391 1.498 2.17003 1.498 2.375C1.498 2.57997 1.66412 2.74609 1.86909 2.74609C2.24831 2.74609 2.47473 3.01195 2.47473 3.45712C2.47473 3.91127 2.13176 4.15625 1.80923 4.15625C1.23084 4.15625 0.742188 3.46625 0.742188 2.64955C0.742188 1.59788 1.35855 0.742188 2.1161 0.742188C2.64085 0.742188 3.05109 0.905266 3.33506 1.22678C3.68499 1.62267 3.86227 2.26498 3.86227 3.13574V4.15625H3.04572ZM5.13979 17.69C4.78957 17.2653 4.60446 16.634 4.60446 15.8643C4.60446 15.8443 4.60243 15.8247 4.59939 15.8054C4.60243 15.7863 4.60446 15.7667 4.60446 15.7467V12.6966L5.61569 11.793C5.70194 11.716 5.74746 11.6031 5.73847 11.4877C5.72963 11.3724 5.66744 11.2678 5.57047 11.2049L4.60446 10.5786V3.13574C4.60446 2.08291 4.36629 1.27781 3.89706 0.742188H14.8066C15.6046 0.742188 16.2539 1.39146 16.2539 2.18945V2.56055H15.6354C15.4305 2.56055 15.2643 2.72667 15.2643 2.93164V3.72326C15.2643 3.83952 15.3188 3.94896 15.4114 4.01912L15.7986 4.31252L15.0677 4.76928C14.9631 4.83466 14.8978 4.94772 14.8935 5.07094C14.8891 5.19415 14.9464 5.31157 15.0461 5.38405L16.2539 6.2625V14.1016H6.81943C6.80116 14.1016 6.78319 14.1033 6.7655 14.1059C6.72984 14.1033 6.69389 14.1016 6.65751 14.1016C5.86821 14.1016 5.24982 14.7347 5.24982 15.5429C5.24982 16.3986 5.80399 16.9961 6.59764 16.9961C6.80261 16.9961 6.96873 16.83 6.96873 16.625C6.96873 16.42 6.80261 16.2539 6.59764 16.2539C6.21843 16.2539 5.992 15.9881 5.992 15.5429C5.992 15.0887 6.33498 14.8438 6.65751 14.8438C7.23589 14.8438 7.72455 15.5338 7.72455 16.3504C7.72455 17.4021 7.10833 18.2578 6.35078 18.2578C5.86488 18.2578 5.44609 18.0615 5.13979 17.69V17.69ZM16.5508 18.2578H7.8224C7.84153 18.2346 7.86066 18.2114 7.87922 18.1872C8.23495 17.7228 8.4405 17.1193 8.46442 16.4766H14.25C14.455 16.4766 14.6211 16.3104 14.6211 16.1055C14.6211 15.9005 14.455 15.7344 14.25 15.7344H8.39716C8.32033 15.3992 8.18262 15.0955 7.99939 14.8438H16.5508C17.492 14.8438 18.2578 15.6096 18.2578 16.5508C18.2578 17.492 17.492 18.2578 16.5508 18.2578Z" fill="#B50D0D"/>
<path d="M7.02686 3.63672C7.12441 3.63672 7.2198 3.597 7.28923 3.528C7.35823 3.459 7.39795 3.36318 7.39795 3.26562C7.39795 3.16807 7.35823 3.07225 7.28923 3.00325C7.2198 2.93425 7.12441 2.89453 7.02686 2.89453C6.92886 2.89453 6.83348 2.93425 6.76448 3.00325C6.69548 3.07225 6.65576 3.16807 6.65576 3.26562C6.65576 3.36318 6.69548 3.459 6.76448 3.528C6.83348 3.597 6.92886 3.63672 7.02686 3.63672Z" fill="#B50D0D"/>
<path d="M8.60938 3.63672H13.9663C14.1713 3.63672 14.3374 3.4706 14.3374 3.26562C14.3374 3.06065 14.1713 2.89453 13.9663 2.89453H8.60938C8.4044 2.89453 8.23828 3.06065 8.23828 3.26562C8.23828 3.4706 8.4044 3.63672 8.60938 3.63672V3.63672Z" fill="#B50D0D"/>
<path d="M7.02686 5.71484H13.9663C14.1713 5.71484 14.3374 5.54872 14.3374 5.34375C14.3374 5.13878 14.1713 4.97266 13.9663 4.97266H7.02686C6.82203 4.97266 6.65576 5.13878 6.65576 5.34375C6.65576 5.54872 6.82203 5.71484 7.02686 5.71484V5.71484Z" fill="#B50D0D"/>
<path d="M7.02686 7.79297H13.9663C14.1713 7.79297 14.3374 7.62685 14.3374 7.42188C14.3374 7.2169 14.1713 7.05078 13.9663 7.05078H7.02686C6.82203 7.05078 6.65576 7.2169 6.65576 7.42188C6.65576 7.62685 6.82203 7.79297 7.02686 7.79297V7.79297Z" fill="#B50D0D"/>
<path d="M7.02686 9.87109H13.9663C14.1713 9.87109 14.3374 9.70497 14.3374 9.5C14.3374 9.29503 14.1713 9.12891 13.9663 9.12891H7.02686C6.82203 9.12891 6.65576 9.29503 6.65576 9.5C6.65576 9.70497 6.82203 9.87109 7.02686 9.87109V9.87109Z" fill="#B50D0D"/>
<path d="M7.02686 11.9492H13.9663C14.1713 11.9492 14.3374 11.7831 14.3374 11.5781C14.3374 11.3732 14.1713 11.207 13.9663 11.207H7.02686C6.82203 11.207 6.65576 11.3732 6.65576 11.5781C6.65576 11.7831 6.82203 11.9492 7.02686 11.9492V11.9492Z" fill="#B50D0D"/>
<path d="M14.3711 18C14.2734 18 14.1777 18.0397 14.1087 18.1087C14.0397 18.1777 14 18.2735 14 18.3711C14 18.4687 14.0396 18.5645 14.1087 18.6335C14.1777 18.7025 14.2734 18.7422 14.3711 18.7422C14.4687 18.7422 14.5643 18.7025 14.6333 18.6335C14.7025 18.5645 14.7422 18.4687 14.7422 18.3711C14.7422 18.2735 14.7025 18.1777 14.6333 18.1087C14.5643 18.0397 14.4687 18 14.3711 18Z" fill="#B50D0D"/>
</svg>
