<svg width="15" height="19" viewBox="0 0 15 19" fill="none" xmlns="http://www.w3.org/2000/svg">
<path d="M13.6237 1.1953C12.0299 -0.398433 9.43668 -0.398433 7.84294 1.1953C7.03303 2.00521 6.63563 3.07318 6.64888 4.13699L1.19559 10.451C0.561911 11.1847 0.486357 12.2307 0.947774 13.0397L0.768499 13.2189C-0.015287 14.0028 -0.015287 15.2783 0.768536 16.0622C1.55247 16.846 2.82792 16.846 3.61185 16.0622L4.21243 15.4616C4.50852 15.1655 4.99016 15.1655 5.28626 15.4616C5.42965 15.605 5.50866 15.7957 5.50866 15.9985C5.50866 16.2013 5.42965 16.392 5.28626 16.5354L3.70633 18.1153L4.59105 19L6.17098 17.4202C6.55072 17.0404 6.75983 16.5355 6.75983 15.9985C6.75983 15.4615 6.55072 14.9567 6.17098 14.5769C5.38705 13.7931 4.11156 13.7931 3.32767 14.5769L2.72709 15.1775C2.43107 15.4736 1.94939 15.4736 1.65326 15.1775C1.35724 14.8815 1.35724 14.3998 1.65326 14.1037L1.84764 13.9093C2.17453 14.0809 2.5365 14.1673 2.89905 14.1673C3.4223 14.1673 3.94661 13.9872 4.36788 13.6235L10.6819 8.17018C10.6991 8.1704 10.7162 8.1714 10.7332 8.1714C11.78 8.1714 12.8267 7.77296 13.6236 6.97611C15.2175 5.38227 15.2175 2.78907 13.6237 1.1953ZM3.55014 12.6765C3.15652 13.0165 2.55999 12.9946 2.19212 12.6269C1.82433 12.2591 1.80255 11.6625 2.14258 11.2689L6.97021 5.67922C7.16915 6.15065 7.45942 6.59244 7.84294 6.976C8.2265 7.35953 8.66829 7.64983 9.13973 7.84878L3.55014 12.6765ZM12.739 6.09124C11.633 7.19717 9.83363 7.19714 8.72766 6.09124C7.62177 4.98535 7.62177 3.18592 8.72766 2.07999C9.28074 1.52702 10.0069 1.25059 10.7333 1.25059C11.4595 1.25059 12.186 1.52709 12.739 2.08002C13.8449 3.18595 13.8449 4.98538 12.739 6.09124Z" fill="#B50D0D"/>
</svg>
