<svg width="19" height="15" viewBox="0 0 19 15" fill="none" xmlns="http://www.w3.org/2000/svg">
<path d="M5.54162 10.2715C6.59218 10.2715 7.39658 10.4647 8.62597 10.9861L9.0786 11.184L9.57309 11.4105L10.3003 11.7504L10.719 11.939C10.7855 11.9682 10.8504 11.9964 10.9139 12.0236L11.2779 12.1742C12.1489 12.5209 12.744 12.6465 13.4583 12.6465C14.209 12.6465 15.0436 12.4462 15.8856 12.1094C16.1859 11.9892 16.465 11.8604 16.7144 11.7322L16.9271 11.6189L17.0093 11.5718C17.3842 11.3469 17.8705 11.4684 18.0955 11.8433C18.3204 12.2183 18.1988 12.7045 17.8239 12.9295L17.6093 13.0519L17.3427 13.1909C17.1 13.3124 16.807 13.4461 16.4737 13.5794C15.4602 13.9848 14.4394 14.2298 13.4583 14.2298C12.4077 14.2298 11.6033 14.0366 10.3739 13.5152L9.92131 13.3173L9.42682 13.0908L8.69961 12.7509L8.28087 12.5623C8.21439 12.5331 8.14949 12.5049 8.08605 12.4777L7.72199 12.3271C6.85099 11.9804 6.25593 11.8548 5.54162 11.8548C4.79095 11.8548 3.95634 12.0551 3.11429 12.3919C2.81398 12.5121 2.53491 12.6409 2.28553 12.7691L2.07285 12.8824L1.9906 12.9295C1.61568 13.1544 1.12939 13.0329 0.904442 12.658C0.679491 12.283 0.801063 11.7968 1.17598 11.5718L1.39059 11.4494L1.65719 11.3104C1.89996 11.1889 2.19294 11.0552 2.52625 10.9219C3.53967 10.5165 4.56053 10.2715 5.54162 10.2715Z" fill="#B50D0D"/>
<path d="M5.54162 5.52148C6.59218 5.52148 7.39658 5.71468 8.62597 6.23611L9.0786 6.434L9.57309 6.66046L10.3003 7.00037L10.719 7.18896C10.7855 7.21821 10.8504 7.2464 10.9139 7.27356L11.2779 7.42423C12.1489 7.77087 12.744 7.89648 13.4583 7.89648C14.209 7.89648 15.0436 7.69618 15.8856 7.35936C16.1859 7.23923 16.465 7.11043 16.7144 6.98218L16.9271 6.86893L17.0093 6.8218C17.3842 6.59685 17.8705 6.71842 18.0955 7.09334C18.3204 7.46826 18.1988 7.95455 17.8239 8.1795L17.6093 8.30187L17.3427 8.44091C17.1 8.56237 16.807 8.69612 16.4737 8.82944C15.4602 9.23481 14.4394 9.47982 13.4583 9.47982C12.4077 9.47982 11.6033 9.28663 10.3739 8.76519L9.92131 8.5673L9.42682 8.34084L8.69961 8.00093L8.28087 7.81235C8.21439 7.78309 8.14949 7.7549 8.08605 7.72774L7.72199 7.57707C6.85099 7.23043 6.25593 7.10482 5.54162 7.10482C4.79095 7.10482 3.95634 7.30512 3.11429 7.64194C2.81398 7.76207 2.53491 7.89087 2.28553 8.01912L2.07285 8.13237L1.9906 8.1795C1.61568 8.40445 1.12939 8.28288 0.904442 7.90796C0.679491 7.53304 0.801063 7.04675 1.17598 6.8218L1.39059 6.69943L1.65719 6.56039C1.89996 6.43893 2.19294 6.30518 2.52625 6.17186C3.53967 5.76649 4.56053 5.52148 5.54162 5.52148Z" fill="#B50D0D"/>
<path d="M5.54162 0.771484C6.59218 0.771484 7.39658 0.964675 8.62597 1.48611L9.0786 1.684L9.57309 1.91046L10.3003 2.25037L10.719 2.43896C10.7855 2.46821 10.8504 2.4964 10.9139 2.52356L11.2779 2.67423C12.1489 3.02087 12.744 3.14648 13.4583 3.14648C14.209 3.14648 15.0436 2.94618 15.8856 2.60936C16.1859 2.48923 16.465 2.36043 16.7144 2.23218L16.9271 2.11893L17.0093 2.0718C17.3842 1.84685 17.8705 1.96842 18.0955 2.34334C18.3204 2.71826 18.1988 3.20455 17.8239 3.4295L17.6093 3.55187L17.3427 3.69092C17.1 3.81237 16.807 3.94612 16.4737 4.07945C15.4602 4.48481 14.4394 4.72982 13.4583 4.72982C12.4077 4.72982 11.6033 4.53663 10.3739 4.01519L9.92131 3.8173L9.42682 3.59084L8.69961 3.25093L8.28087 3.06235C8.21439 3.03309 8.14949 3.0049 8.08605 2.97775L7.72199 2.82707C6.85099 2.48043 6.25593 2.35482 5.54162 2.35482C4.79095 2.35482 3.95634 2.55512 3.11429 2.89195C2.81398 3.01207 2.53491 3.14087 2.28553 3.26912L2.07285 3.38237L1.9906 3.4295C1.61568 3.65445 1.12939 3.53288 0.904442 3.15796C0.679491 2.78304 0.801063 2.29675 1.17598 2.0718L1.39059 1.94943L1.65719 1.81039C1.89996 1.68893 2.19294 1.55518 2.52625 1.42186C3.53967 1.01649 4.56053 0.771484 5.54162 0.771484Z" fill="#B50D0D"/>
</svg>
