<svg width="19" height="19" viewBox="0 0 19 19" fill="none" xmlns="http://www.w3.org/2000/svg">
<path d="M16.606 4.01019C17.5281 4.01019 18.2782 3.26006 18.2782 2.338V1.11328H19V0H17.1649V2.338C17.1649 2.6462 16.9142 2.89691 16.606 2.89691C16.2978 2.89691 16.0471 2.6462 16.0471 2.338V1.6867C16.0471 0.764639 15.2969 0.0144727 14.3748 0.0144727H14.258C13.336 0.0144727 12.5858 0.764602 12.5858 1.6867V2.89691H11.3247V1.66521H5.10109V0H3.98781V1.66521H3.1304V5.61921H2.11238V6.73249H3.1304V7.62839H2.11238V8.74167H4.48805V9.81588H0V17.1561H7.68999L8.10758 17.7232C8.69636 18.5227 9.64061 19 10.6335 19H13.0483C13.6294 19 14.1507 18.7408 14.5039 18.3324H16.1628C17.09 18.3324 17.8443 17.5781 17.8443 16.6509C17.8443 16.4329 17.8022 16.2247 17.7264 16.0334C18.4563 15.8561 19 15.1974 19 14.4137V14.3846C19 13.8296 18.7271 13.3373 18.3087 13.0342C18.4693 12.7765 18.5624 12.4727 18.5624 12.1474C18.5624 11.4423 18.1259 10.8375 17.5091 10.5881C17.6084 10.3737 17.6642 10.1353 17.6642 9.88393C17.6642 8.95676 16.9099 8.2024 15.9827 8.2024H11.5507C10.4961 8.2024 9.48363 8.52458 8.62292 9.1341L7.66027 9.8158H5.60129V8.7416H6.72823V5.19984H11.3247V4.01015H13.6991V1.6867C13.6991 1.3785 13.9498 1.12775 14.258 1.12775H14.3748C14.683 1.12775 14.9338 1.3785 14.9338 1.6867V2.338C14.9338 3.26006 15.684 4.01019 16.606 4.01019ZM16.8809 12.7176H15.5286C15.2142 12.7176 14.9584 12.4618 14.9584 12.1475C14.9584 11.8331 15.2142 11.5773 15.5286 11.5773H16.8809C17.1953 11.5773 17.4511 11.8331 17.4511 12.1475C17.4511 12.4618 17.1953 12.7176 16.8809 12.7176ZM16.1628 17.2211H14.967C14.9706 17.1729 14.973 16.0807 14.973 16.0807H16.1628C16.4772 16.0807 16.733 16.3365 16.733 16.6509C16.733 16.9653 16.4772 17.2211 16.1628 17.2211ZM17.8886 14.4137C17.8886 14.7201 17.6394 14.9694 17.333 14.9694H15.2641C14.9577 14.9694 14.7085 14.7201 14.7085 14.4137V14.3846C14.7085 14.0782 14.9577 13.829 15.2641 13.829H17.333C17.6394 13.829 17.8886 14.0783 17.8886 14.3846V14.4137ZM15.9827 9.31378C16.2972 9.31378 16.5529 9.56958 16.5529 9.88397C16.5529 10.1984 16.2972 10.4542 15.9827 10.4542H14.6305C14.3161 10.4542 14.0603 10.1984 14.0603 9.88397C14.0603 9.56958 14.3161 9.31378 14.6305 9.31378H15.9827ZM8.01396 10.9272L9.26525 10.0411C9.93711 9.56531 10.7274 9.31378 11.5507 9.31378H13.0487C12.9842 9.49191 12.9489 9.68388 12.9489 9.88397C12.9489 10.5891 13.3854 11.1938 14.0022 11.4433C13.9029 11.6576 13.8471 11.8961 13.8471 12.1475C13.8471 12.5148 13.9658 12.8548 14.1664 13.1317C13.9391 13.331 13.7662 13.5908 13.6734 13.8859C13.5535 13.8585 13.4288 13.8435 13.3006 13.8435C12.6569 13.8435 12.097 14.2091 11.8174 14.7435C11.3398 14.3232 10.7137 14.0681 10.029 14.0681H9.44638V15.1794H10.029C10.9108 15.1794 11.6281 15.8968 11.6281 16.7786H12.7395V15.516C12.7395 15.2066 12.9912 14.9549 13.3006 14.9549C13.61 14.9549 13.8617 15.2066 13.8617 15.516V17.0753C13.8617 17.5238 13.4968 17.8887 13.0484 17.8887H10.6335C9.99237 17.8887 9.38262 17.5805 9.00244 17.0642L8.25175 16.0448H1.11135V10.9272H8.01396ZM5.61498 7.62835H4.25043L4.23574 2.77849H5.61495V7.62835H5.61498ZM10.2115 4.0866H6.72826V2.77849H10.2115V4.0866Z" fill="#B50D0D"/>
</svg>
