<svg width="19" height="18" viewBox="0 0 19 18" fill="none" xmlns="http://www.w3.org/2000/svg">
<path fill-rule="evenodd" clip-rule="evenodd" d="M14.6457 2.37435C13.9898 2.37435 13.4582 2.90601 13.4582 3.56185C13.4582 4.21769 13.9898 4.74935 14.6457 4.74935C15.3015 4.74935 15.8332 4.21769 15.8332 3.56185C15.8332 2.90601 15.3015 2.37435 14.6457 2.37435ZM11.8748 3.56185C11.8748 2.03156 13.1154 0.791016 14.6457 0.791016C16.176 0.791016 17.4165 2.03156 17.4165 3.56185C17.4165 5.09214 16.176 6.33268 14.6457 6.33268C13.1154 6.33268 11.8748 5.09214 11.8748 3.56185ZM7.13181 3.16605C7.44886 3.16884 7.73366 3.36052 7.85561 3.6532L11.0007 11.2015L11.9155 8.45734C12.0132 8.16403 12.2728 7.95448 12.5801 7.92074C12.8874 7.88701 13.1863 8.03526 13.3454 8.30037L18.0954 16.217C18.2421 16.4616 18.2459 16.7662 18.1054 17.0144C17.9649 17.2626 17.7017 17.416 17.4165 17.416H1.58317C1.316 17.416 1.06686 17.2813 0.920624 17.0577C0.774389 16.8341 0.750796 16.5518 0.857882 16.307L6.39955 3.64037C6.52663 3.34989 6.81477 3.16325 7.13181 3.16605ZM2.79364 15.8327H16.0183L12.8732 10.591L11.8342 13.708C11.7298 14.0212 11.442 14.2368 11.1121 14.2488C10.7822 14.2609 10.4794 14.0669 10.3524 13.7622L7.10708 5.9734L2.79364 15.8327Z" fill="white"/>
</svg>
