<svg width="19" height="18" viewBox="0 0 19 18" fill="none" xmlns="http://www.w3.org/2000/svg">
<path d="M6.33317 9.49935C6.7704 9.49935 7.12484 9.85379 7.12484 10.291V11.0827H7.9165C8.35373 11.0827 8.70817 11.4371 8.70817 11.8743C8.70817 12.3116 8.35373 12.666 7.9165 12.666H7.12484V13.4577C7.12484 13.8949 6.7704 14.2493 6.33317 14.2493C5.89595 14.2493 5.5415 13.8949 5.5415 13.4577V12.666H4.74984C4.31261 12.666 3.95817 12.3116 3.95817 11.8743C3.95817 11.4371 4.31261 11.0827 4.74984 11.0827H5.5415V10.291C5.5415 9.85379 5.89595 9.49935 6.33317 9.49935Z" fill="#B50D0D"/>
<path fill-rule="evenodd" clip-rule="evenodd" d="M12.6665 9.49935C11.3548 9.49935 10.2915 10.5627 10.2915 11.8743C10.2915 13.186 11.3548 14.2493 12.6665 14.2493C13.9782 14.2493 15.0415 13.186 15.0415 11.8743C15.0415 10.5627 13.9782 9.49935 12.6665 9.49935ZM11.8748 11.8743C11.8748 11.4371 12.2293 11.0827 12.6665 11.0827C13.1037 11.0827 13.4582 11.4371 13.4582 11.8743C13.4582 12.3116 13.1037 12.666 12.6665 12.666C12.2293 12.666 11.8748 12.3116 11.8748 11.8743Z" fill="#B50D0D"/>
<path fill-rule="evenodd" clip-rule="evenodd" d="M12.6665 0.791016C13.1037 0.791016 13.4582 1.14546 13.4582 1.58268V3.84459C13.4582 4.28181 13.1037 4.63625 12.6665 4.63625H10.2915V6.33268H12.6665C15.7271 6.33268 18.2082 8.81377 18.2082 11.8743C18.2082 14.9349 15.7271 17.416 12.6665 17.416H6.33317C3.27259 17.416 0.791504 14.9349 0.791504 11.8743C0.791504 8.81377 3.27259 6.33268 6.33317 6.33268H8.70817V3.84459C8.70817 3.40736 9.06261 3.05292 9.49984 3.05292H11.8748V1.58268C11.8748 1.14546 12.2293 0.791016 12.6665 0.791016ZM6.33317 7.91602C4.14704 7.91602 2.37484 9.68822 2.37484 11.8743C2.37484 14.0605 4.14704 15.8327 6.33317 15.8327H12.6665C14.8526 15.8327 16.6248 14.0605 16.6248 11.8743C16.6248 9.68822 14.8526 7.91602 12.6665 7.91602H6.33317Z" fill="#B50D0D"/>
</svg>
