<svg width="19" height="9" viewBox="0 0 19 9" fill="none" xmlns="http://www.w3.org/2000/svg">
<path d="M17.86 3.36031V2.60031C17.86 1.97075 17.3496 1.46031 16.72 1.46031H15.96C15.96 0.830752 15.4496 0.320312 14.82 0.320312H14.06C13.4304 0.320312 12.92 0.830752 12.92 1.46031V3.36031H6.08V1.46031C6.08 0.830752 5.56956 0.320312 4.94 0.320312H4.18C3.55044 0.320312 3.04 0.830752 3.04 1.46031H2.28C1.65044 1.46031 1.14 1.97075 1.14 2.60031V3.36031C0.51044 3.36031 0 3.87075 0 4.50031C0 5.12987 0.51044 5.64031 1.14 5.64031V6.40031C1.14 7.02987 1.65044 7.54031 2.28 7.54031H3.04C3.04 8.16987 3.55044 8.68031 4.18 8.68031H4.94C5.56956 8.68031 6.08 8.16987 6.08 7.54031V5.64031H12.92V7.54031C12.92 8.16987 13.4304 8.68031 14.06 8.68031H14.82C15.4496 8.68031 15.96 8.16987 15.96 7.54031H16.72C17.3496 7.54031 17.86 7.02987 17.86 6.40031V5.64031C18.4896 5.64031 19 5.12987 19 4.50031C19 3.87075 18.4896 3.36031 17.86 3.36031ZM17.86 4.88031V4.12031C18.0699 4.12031 18.24 4.29046 18.24 4.50031C18.24 4.71017 18.0699 4.88031 17.86 4.88031ZM16.72 6.78031H15.96V2.22031H16.72C16.9299 2.22031 17.1 2.39046 17.1 2.60031V6.40031C17.1 6.61017 16.9299 6.78031 16.72 6.78031ZM14.82 7.92031H14.06C13.8501 7.92031 13.68 7.75017 13.68 7.54031V1.46031C13.68 1.25046 13.8501 1.08031 14.06 1.08031H14.82C15.0299 1.08031 15.2 1.25046 15.2 1.46031V7.54031C15.2 7.75017 15.0299 7.92031 14.82 7.92031ZM4.94 7.92031H4.18C3.97015 7.92031 3.8 7.75017 3.8 7.54031V1.46031C3.8 1.25046 3.97015 1.08031 4.18 1.08031H4.94C5.14985 1.08031 5.32 1.25046 5.32 1.46031V7.54031C5.32 7.75017 5.14985 7.92031 4.94 7.92031ZM1.9 6.40031V2.60031C1.9 2.39046 2.07015 2.22031 2.28 2.22031H3.04V6.78031H2.28C2.07015 6.78031 1.9 6.61017 1.9 6.40031ZM0.76 4.50031C0.76 4.29046 0.930147 4.12031 1.14 4.12031V4.88031C0.930147 4.88031 0.76 4.71017 0.76 4.50031ZM6.08 4.12031H12.92V4.88031H6.08V4.12031Z" fill="#B50D0D"/>
</svg>
